<?xml version="1.0" standalone="no"?>
<!DOCTYPE svg PUBLIC "-//W3C//DTD SVG 20010904//EN"
 "http://www.w3.org/TR/2001/REC-SVG-20010904/DTD/svg10.dtd">
<svg version="1.0" xmlns="http://www.w3.org/2000/svg"
 width="1427.000000pt" height="1293.000000pt" viewBox="0 0 1427.000000 1293.000000"
 preserveAspectRatio="xMidYMid meet">

<g transform="translate(0.000000,1293.000000) scale(0.100000,-0.100000)"
fill="#000000" stroke="none">
<path d="M6561 12523 c-1 -8 -14 -13 -31 -13 -16 0 -30 -4 -30 -10 0 -5 -7
-10 -15 -10 -8 0 -15 -4 -15 -8 0 -5 -8 -18 -17 -30 -10 -11 -25 -30 -33 -42
-8 -12 -22 -30 -30 -40 -8 -10 -22 -28 -30 -40 -8 -12 -22 -30 -30 -40 -8 -10
-22 -28 -30 -40 -8 -12 -23 -31 -32 -42 -10 -11 -20 -29 -23 -39 -4 -11 -10
-19 -14 -19 -4 0 -22 -31 -41 -70 -19 -38 -36 -70 -40 -70 -6 0 -217 -428
-255 -520 -15 -36 -38 -89 -51 -118 -13 -29 -24 -59 -24 -67 0 -8 -4 -15 -10
-15 -5 0 -10 -9 -10 -20 0 -11 -4 -20 -9 -20 -5 0 -15 -17 -21 -37 -19 -58
-27 -60 -51 -9 -13 25 -29 46 -36 46 -7 0 -13 5 -13 10 0 6 -20 10 -45 10 -52
0 -80 -21 -113 -87 -74 -145 -123 -798 -92 -1238 5 -71 14 -209 19 -305 20
-323 38 -499 91 -870 43 -302 47 -324 73 -419 14 -48 14 -56 0 -87 -17 -34
-17 -34 -85 -34 -39 0 -68 4 -68 10 0 6 -20 10 -45 10 -25 0 -45 5 -45 10 0 6
-18 10 -40 10 -22 0 -40 5 -40 10 0 6 -22 10 -50 10 -27 0 -50 5 -50 10 0 6
-27 10 -60 10 -33 0 -60 4 -60 10 0 6 -22 10 -50 10 -27 0 -50 5 -50 10 0 6
-35 10 -85 10 -50 0 -85 4 -85 10 0 6 -45 10 -115 10 -70 0 -115 -4 -115 -10
0 -5 -7 -10 -16 -10 -23 0 -54 -38 -54 -66 0 -44 -21 -74 -52 -74 -15 0 -28
-4 -28 -10 0 -6 -50 -10 -130 -10 -80 0 -130 -4 -130 -10 0 -6 -28 -10 -65
-10 -37 0 -65 -4 -65 -10 0 -5 -20 -10 -45 -10 -25 0 -45 -4 -45 -10 0 -5 -13
-10 -30 -10 -16 0 -30 -4 -30 -10 0 -5 -6 -10 -13 -10 -14 0 -37 -40 -37 -64
0 -17 34 -56 49 -56 6 0 11 -4 11 -10 0 -5 14 -10 30 -10 17 0 30 -4 30 -10 0
-5 14 -10 30 -10 17 0 30 -4 30 -10 0 -5 11 -10 25 -10 14 0 25 -4 25 -10 0
-5 11 -10 25 -10 14 0 25 -4 25 -10 0 -5 7 -10 15 -10 8 0 15 -4 15 -8 0 -18
-38 -52 -59 -52 -11 0 -21 -4 -21 -10 0 -5 -11 -10 -25 -10 -14 0 -25 -4 -25
-10 0 -5 -11 -10 -25 -10 -14 0 -25 -4 -25 -10 0 -5 -9 -10 -20 -10 -11 0 -20
-4 -20 -10 0 -5 -9 -10 -20 -10 -11 0 -20 -4 -20 -10 0 -5 -11 -10 -25 -10
-14 0 -25 -4 -25 -10 0 -5 -9 -10 -20 -10 -11 0 -20 -4 -20 -10 0 -5 -9 -10
-20 -10 -11 0 -20 -4 -20 -10 0 -5 -11 -10 -25 -10 -14 0 -25 -4 -25 -10 0 -5
-7 -10 -15 -10 -8 0 -15 -4 -15 -10 0 -5 -11 -10 -25 -10 -14 0 -25 -4 -25
-10 0 -5 -7 -10 -15 -10 -8 0 -15 -4 -15 -10 0 -5 -9 -10 -20 -10 -11 0 -20
-4 -20 -10 0 -5 -7 -10 -15 -10 -8 0 -15 -4 -15 -10 0 -5 -7 -10 -15 -10 -8 0
-15 -4 -15 -10 0 -5 -9 -10 -20 -10 -11 0 -20 -4 -20 -10 0 -5 -7 -10 -15 -10
-8 0 -15 -4 -15 -10 0 -5 -9 -10 -20 -10 -11 0 -20 -4 -20 -10 0 -5 -7 -10
-15 -10 -8 0 -15 -4 -15 -10 0 -5 -7 -10 -15 -10 -8 0 -15 -4 -15 -10 0 -5 -9
-10 -20 -10 -11 0 -20 -4 -20 -10 0 -5 -7 -10 -15 -10 -8 0 -15 -4 -15 -10 0
-5 -7 -10 -15 -10 -8 0 -15 -4 -15 -10 0 -5 -7 -10 -15 -10 -8 0 -15 -4 -15
-10 0 -5 -7 -10 -15 -10 -8 0 -15 -4 -15 -10 0 -5 -7 -10 -15 -10 -8 0 -15 -4
-15 -10 0 -5 -7 -10 -15 -10 -8 0 -15 -4 -15 -10 0 -5 -7 -10 -15 -10 -8 0
-15 -4 -15 -10 0 -5 -6 -10 -13 -10 -7 0 -19 -9 -27 -20 -8 -11 -22 -20 -32
-20 -10 0 -18 -4 -18 -10 0 -5 -7 -10 -15 -10 -8 0 -15 -4 -15 -10 0 -5 -6
-10 -13 -10 -7 0 -19 -9 -27 -20 -8 -11 -20 -20 -27 -20 -7 0 -13 -4 -13 -10
0 -5 -7 -10 -15 -10 -8 0 -15 -4 -15 -10 0 -5 -6 -10 -13 -10 -7 0 -19 -9 -27
-20 -8 -11 -20 -20 -27 -20 -7 0 -13 -4 -13 -10 0 -5 -6 -10 -13 -10 -7 0 -19
-9 -27 -20 -8 -11 -18 -20 -23 -20 -4 0 -30 -22 -57 -50 -27 -27 -53 -50 -59
-50 -6 0 -11 -4 -11 -10 0 -5 -30 -41 -68 -79 -37 -39 -83 -89 -102 -111 -76
-88 -129 -140 -144 -140 -9 0 -16 -4 -16 -10 0 -5 -9 -10 -20 -10 -11 0 -20
-4 -20 -10 0 -5 -11 -10 -25 -10 -14 0 -25 -4 -25 -10 0 -5 -9 -10 -20 -10
-11 0 -20 -4 -20 -10 0 -5 -9 -10 -20 -10 -11 0 -20 -4 -20 -10 0 -5 -7 -10
-15 -10 -8 0 -15 -4 -15 -10 0 -5 -9 -10 -20 -10 -11 0 -20 -4 -20 -10 0 -5
-9 -10 -20 -10 -11 0 -20 -4 -20 -10 0 -5 -7 -10 -15 -10 -8 0 -15 -4 -15 -10
0 -5 -9 -10 -20 -10 -11 0 -20 -4 -20 -10 0 -5 -9 -10 -20 -10 -11 0 -20 -4
-20 -10 0 -5 -20 -10 -45 -10 -25 0 -45 5 -45 10 0 6 -8 10 -18 10 -10 0 -24
9 -32 20 -8 11 -22 20 -32 20 -10 0 -18 5 -18 10 0 6 -7 10 -15 10 -8 0 -15 5
-15 10 0 6 -7 10 -15 10 -8 0 -15 5 -15 10 0 6 -9 10 -20 10 -11 0 -20 5 -20
10 0 6 -9 10 -20 10 -11 0 -20 5 -20 10 0 6 -16 10 -35 10 -19 0 -35 5 -35 10
0 6 -25 10 -55 10 -30 0 -55 -4 -55 -10 0 -5 -13 -10 -30 -10 -16 0 -30 -4
-30 -10 0 -5 -11 -10 -25 -10 -14 0 -25 -4 -25 -10 0 -5 -9 -10 -20 -10 -11 0
-20 -4 -20 -10 0 -5 -7 -10 -15 -10 -8 0 -15 -4 -15 -10 0 -5 -9 -10 -20 -10
-11 0 -20 -4 -20 -10 0 -5 -7 -10 -15 -10 -8 0 -15 -4 -15 -10 0 -5 -6 -10
-13 -10 -7 0 -19 -9 -27 -20 -8 -11 -20 -20 -27 -20 -7 0 -13 -4 -13 -10 0 -5
-7 -10 -15 -10 -8 0 -15 -4 -15 -10 0 -5 -7 -10 -15 -10 -8 0 -15 -4 -15 -10
0 -5 -7 -10 -15 -10 -8 0 -15 -4 -15 -10 0 -5 -7 -10 -15 -10 -8 0 -15 -4 -15
-10 0 -5 -7 -10 -15 -10 -8 0 -15 -4 -15 -10 0 -5 -7 -10 -15 -10 -8 0 -15 -4
-15 -10 0 -5 -7 -10 -15 -10 -8 0 -15 -4 -15 -10 0 -5 -7 -10 -15 -10 -8 0
-15 -4 -15 -10 0 -5 -7 -10 -15 -10 -8 0 -15 -4 -15 -10 0 -5 -7 -10 -15 -10
-8 0 -15 -4 -15 -10 0 -5 -7 -10 -15 -10 -8 0 -15 -4 -15 -10 0 -5 -7 -10 -15
-10 -8 0 -15 -4 -15 -10 0 -5 -7 -10 -15 -10 -8 0 -15 -4 -15 -10 0 -5 -6 -10
-13 -10 -7 0 -19 -9 -27 -20 -8 -11 -20 -20 -27 -20 -7 0 -13 -4 -13 -10 0 -5
-7 -10 -15 -10 -8 0 -15 -4 -15 -10 0 -5 -6 -10 -13 -10 -7 0 -19 -9 -27 -20
-8 -11 -20 -20 -27 -20 -7 0 -13 -4 -13 -10 0 -5 -7 -10 -15 -10 -8 0 -15 -4
-15 -10 0 -5 -7 -10 -15 -10 -8 0 -15 -4 -15 -10 0 -5 -7 -10 -15 -10 -8 0
-15 -4 -15 -10 0 -5 -7 -10 -15 -10 -8 0 -15 -4 -15 -10 0 -5 -5 -10 -10 -10
-16 0 -137 -125 -156 -162 -23 -44 -30 -181 -14 -258 7 -33 17 -60 21 -60 5 0
9 -9 9 -20 0 -11 5 -20 10 -20 6 0 10 -9 10 -20 0 -11 5 -20 10 -20 6 0 10 -9
10 -20 0 -11 5 -20 10 -20 6 0 10 -9 10 -20 0 -11 4 -20 8 -20 5 0 19 -22 32
-50 13 -27 26 -50 30 -50 4 0 17 -23 30 -50 13 -28 27 -50 32 -50 4 0 8 -9 8
-20 0 -11 4 -20 8 -20 5 0 23 -31 42 -70 19 -38 37 -70 41 -70 3 0 12 -13 19
-30 7 -16 16 -30 20 -30 3 0 17 -23 30 -50 13 -28 26 -50 30 -50 3 0 21 -31
40 -70 19 -38 37 -70 42 -70 4 0 8 -9 8 -20 0 -11 4 -20 8 -20 5 0 19 -22 32
-50 13 -27 27 -50 30 -50 4 0 13 -13 20 -30 7 -16 16 -30 21 -30 5 0 9 -9 9
-20 0 -11 4 -20 8 -20 5 0 19 -23 32 -50 13 -28 26 -50 30 -50 4 0 15 -19 26
-41 10 -23 24 -47 30 -54 7 -6 36 -58 64 -115 28 -57 57 -109 64 -115 6 -7 20
-31 30 -54 11 -22 23 -41 28 -41 4 0 8 -9 8 -20 0 -11 4 -20 8 -20 5 0 19 -22
32 -50 13 -27 27 -50 32 -50 4 0 8 -9 8 -20 0 -11 4 -20 9 -20 5 0 14 -13 21
-30 7 -17 16 -30 20 -30 4 0 13 -13 20 -30 7 -16 16 -30 21 -30 4 0 10 -9 14
-19 3 -11 18 -33 33 -49 15 -17 34 -40 42 -52 25 -37 67 -80 79 -80 6 0 11 -4
11 -10 0 -5 7 -10 15 -10 8 0 15 -4 15 -10 0 -5 7 -10 15 -10 8 0 15 -4 15
-10 0 -5 9 -10 20 -10 11 0 20 -4 20 -10 0 -5 11 -10 25 -10 14 0 25 -4 25
-10 0 -6 40 -10 100 -10 60 0 100 4 100 10 0 6 14 10 30 10 17 0 30 5 30 10 0
6 9 10 20 10 11 0 20 5 20 10 0 6 9 10 20 10 11 0 20 5 20 10 0 6 7 10 15 10
8 0 15 5 15 10 0 6 7 10 15 10 8 0 15 5 15 10 0 6 7 10 15 10 8 0 15 5 15 10
0 6 6 10 13 10 7 0 19 9 27 20 8 11 20 20 27 20 7 0 13 5 13 10 0 6 7 10 15
10 8 0 15 5 15 10 0 6 6 10 13 10 7 0 19 9 27 20 8 11 19 20 25 20 6 0 17 9
25 20 8 11 20 20 27 20 7 0 13 5 13 10 0 6 6 10 13 10 7 0 19 9 27 20 8 11 19
20 25 20 6 0 17 9 25 20 8 11 19 20 25 20 6 0 17 9 25 20 8 11 19 20 25 20 6
0 17 9 25 20 8 11 19 20 25 20 6 0 17 9 25 20 8 11 19 20 25 20 6 0 17 9 25
20 8 11 19 20 25 20 6 0 17 9 25 20 8 11 20 20 27 20 7 0 13 5 13 10 0 6 6 10
13 10 7 0 19 9 27 20 8 11 20 20 27 20 7 0 13 5 13 10 0 6 6 10 13 10 7 0 19
9 27 20 8 11 20 20 27 20 7 0 13 5 13 10 0 6 7 10 15 10 8 0 15 5 15 10 0 6 6
10 13 10 7 0 19 9 27 20 8 11 20 20 27 20 7 0 13 5 13 10 0 6 6 10 13 10 7 0
19 9 27 20 8 11 20 20 27 20 7 0 13 5 13 10 0 6 7 10 15 10 8 0 15 5 15 10 0
6 6 10 13 10 7 0 19 9 27 20 8 11 20 20 27 20 7 0 13 5 13 10 0 6 5 10 10 10
21 0 100 91 129 149 27 53 31 70 31 146 0 82 -16 165 -32 165 -5 0 -8 7 -8 15
0 23 -80 178 -101 196 -35 31 -25 74 34 133 28 30 63 68 77 86 14 17 37 45 53
61 15 17 27 35 27 39 0 5 6 15 14 22 21 22 43 69 71 154 42 129 45 134 71 134
13 0 24 5 24 10 0 6 11 10 25 10 14 0 25 5 25 10 0 6 11 10 25 10 14 0 25 5
25 10 0 6 11 10 25 10 14 0 25 5 25 10 0 6 9 10 20 10 11 0 20 5 20 10 0 6 7
10 15 10 20 0 119 99 141 142 33 63 44 131 44 271 0 134 1 139 31 199 17 34
37 68 45 75 8 8 14 18 14 23 0 4 12 21 28 38 15 16 34 40 42 52 21 32 70 85
190 209 58 59 112 118 120 130 8 11 18 21 23 21 5 0 26 18 47 40 21 22 41 40
45 40 4 0 24 18 45 40 21 22 41 40 45 40 4 0 20 14 35 30 15 17 32 30 37 30 5
0 15 9 23 20 8 11 19 20 25 20 6 0 17 9 25 20 8 11 20 20 27 20 7 0 13 5 13
10 0 6 6 10 13 10 7 0 19 9 27 20 8 11 20 20 27 20 7 0 13 5 13 10 0 6 7 10
15 10 8 0 15 5 15 10 0 6 7 10 15 10 8 0 15 5 15 10 0 6 7 10 15 10 8 0 15 5
15 10 0 6 9 10 20 10 11 0 20 5 20 10 0 6 7 10 15 10 8 0 15 5 15 10 0 6 11
10 25 10 14 0 25 5 25 10 0 6 14 10 30 10 17 0 30 5 30 10 0 6 18 10 40 10 22
0 40 5 40 10 0 6 77 10 210 10 133 0 210 -4 210 -10 0 -6 28 -10 65 -10 37 0
65 -4 65 -10 0 -5 10 -10 21 -10 39 0 56 -34 68 -138 40 -350 46 -463 46 -827
-1 -372 -11 -538 -50 -785 -17 -107 -58 -293 -84 -387 -51 -178 -63 -218 -121
-383 -34 -96 -68 -196 -76 -222 -7 -27 -21 -69 -28 -95 -39 -127 -76 -222 -98
-247 -24 -30 -44 -56 -58 -76 -8 -12 -22 -30 -30 -40 -14 -16 -34 -57 -91
-189 -13 -30 -35 -66 -49 -81 -14 -15 -32 -37 -40 -49 -8 -12 -18 -21 -23 -21
-5 0 -26 -18 -47 -40 -21 -22 -42 -40 -47 -40 -5 0 -15 -9 -23 -20 -8 -11 -20
-20 -27 -20 -7 0 -13 -4 -13 -10 0 -5 -7 -10 -15 -10 -8 0 -15 -4 -15 -10 0
-5 -7 -10 -15 -10 -8 0 -15 -4 -15 -10 0 -5 -7 -10 -15 -10 -8 0 -15 -4 -15
-10 0 -5 -9 -10 -20 -10 -11 0 -20 -4 -20 -10 0 -5 -9 -10 -20 -10 -11 0 -20
-4 -20 -10 0 -5 -9 -10 -20 -10 -11 0 -20 -4 -20 -10 0 -5 -11 -10 -25 -10
-14 0 -25 -4 -25 -10 0 -5 -11 -10 -25 -10 -14 0 -25 -4 -25 -10 0 -5 -13 -10
-30 -10 -16 0 -30 -4 -30 -10 0 -5 -20 -10 -45 -10 -25 0 -45 -4 -45 -10 0 -6
-27 -10 -60 -10 -33 0 -60 -4 -60 -10 0 -6 -37 -10 -90 -10 -53 0 -90 4 -90
10 0 6 -22 10 -50 10 -27 0 -50 5 -50 10 0 6 -16 10 -35 10 -19 0 -35 5 -35
10 0 6 -13 10 -30 10 -16 0 -30 5 -30 10 0 6 -9 10 -20 10 -11 0 -20 5 -20 10
0 6 -9 10 -20 10 -11 0 -20 5 -20 10 0 6 -9 10 -20 10 -11 0 -20 5 -20 10 0 6
-7 10 -15 10 -8 0 -15 5 -15 10 0 6 -5 10 -10 10 -6 0 -36 26 -68 57 l-57 58
3 158 c2 143 0 161 -19 199 -22 44 -62 88 -79 88 -5 0 -10 5 -10 10 0 6 -11
10 -25 10 -14 0 -25 5 -25 10 0 6 -25 10 -55 10 -30 0 -55 -4 -55 -10 0 -5
-13 -10 -30 -10 -16 0 -30 -4 -30 -10 0 -5 -9 -10 -20 -10 -11 0 -20 -4 -20
-10 0 -5 -5 -10 -11 -10 -12 0 -129 -117 -129 -129 0 -4 -9 -18 -20 -31 -11
-13 -23 -35 -27 -49 -3 -14 -18 -51 -33 -81 -15 -30 -34 -82 -44 -115 -31
-108 -97 -319 -113 -360 -27 -72 -97 -215 -105 -215 -4 0 -8 -9 -8 -20 0 -11
-4 -20 -8 -20 -5 0 -19 -22 -32 -50 -13 -27 -27 -50 -30 -50 -4 0 -13 -13 -20
-30 -7 -16 -16 -30 -21 -30 -5 0 -9 -9 -9 -20 0 -11 -4 -20 -9 -20 -5 0 -14
-14 -21 -30 -7 -17 -16 -30 -20 -30 -4 0 -13 -13 -20 -30 -7 -16 -16 -30 -20
-30 -4 0 -13 -13 -20 -30 -7 -16 -16 -30 -20 -30 -4 0 -13 -14 -20 -30 -7 -17
-16 -30 -20 -30 -4 0 -15 -19 -26 -41 -10 -23 -24 -47 -30 -54 -7 -6 -39 -66
-73 -132 -67 -134 -87 -215 -79 -317 3 -34 13 -77 22 -95 20 -37 100 -121 116
-121 5 0 10 -4 10 -10 0 -5 7 -10 15 -10 8 0 15 -4 15 -10 0 -6 38 -10 95 -10
57 0 95 4 95 10 0 6 11 10 25 10 14 0 25 5 25 10 0 6 11 10 25 10 14 0 25 5
25 10 0 6 11 10 25 10 14 0 25 5 25 10 0 6 9 10 20 10 11 0 20 -4 20 -10 0 -5
9 -10 20 -10 11 0 20 -4 20 -10 0 -5 14 -10 30 -10 17 0 30 -4 30 -10 0 -6 43
-10 110 -10 67 0 110 4 110 10 0 6 9 10 20 10 11 0 20 5 20 10 0 6 7 10 15 10
9 0 40 24 70 54 55 55 120 170 142 251 28 100 53 337 53 507 1 159 13 303 31
341 8 18 20 27 36 27 12 0 23 -4 23 -10 0 -5 14 -10 30 -10 17 0 30 -4 30 -10
0 -5 11 -10 25 -10 14 0 25 -4 25 -10 0 -5 9 -10 20 -10 11 0 20 -4 20 -10 0
-5 9 -10 20 -10 11 0 20 -4 20 -10 0 -5 11 -10 25 -10 14 0 25 -4 25 -10 0 -5
14 -10 30 -10 17 0 30 -4 30 -10 0 -5 16 -10 35 -10 19 0 35 -4 35 -10 0 -5
18 -10 40 -10 22 0 40 -4 40 -10 0 -5 23 -10 50 -10 28 0 50 -4 50 -10 0 -6
35 -10 85 -10 50 0 85 -4 85 -10 0 -5 7 -10 15 -10 8 0 15 5 15 10 0 6 40 10
100 10 60 0 100 4 100 10 0 6 23 10 50 10 28 0 50 5 50 10 0 6 16 10 35 10 19
0 35 5 35 10 0 6 14 10 30 10 17 0 30 5 30 10 0 6 14 10 30 10 17 0 30 5 30
10 0 6 11 10 25 10 14 0 25 5 25 10 0 6 9 10 20 10 11 0 20 5 20 10 0 6 11 10
25 10 14 0 25 5 25 10 0 6 9 10 20 10 11 0 20 5 20 10 0 6 9 10 20 10 11 0 20
5 20 10 0 6 9 10 20 10 11 0 20 5 20 10 0 6 9 10 20 10 11 0 20 5 20 10 0 6 9
10 20 10 11 0 20 5 20 10 0 6 7 10 15 10 8 0 15 5 15 10 0 6 9 10 20 10 11 0
20 5 20 10 0 6 7 10 15 10 8 0 15 5 15 10 0 6 7 10 15 10 8 0 15 5 15 10 0 6
9 10 20 10 11 0 20 5 20 10 0 6 11 10 25 10 14 0 25 5 25 10 0 6 18 10 40 10
22 0 40 -4 40 -10 0 -5 7 -10 15 -10 8 0 15 -4 15 -10 0 -5 5 -10 11 -10 6 0
24 -13 39 -30 15 -16 31 -30 35 -30 4 0 24 -18 45 -40 21 -22 43 -40 49 -40 6
0 11 -4 11 -10 0 -5 7 -10 15 -10 8 0 15 -4 15 -10 0 -5 7 -10 15 -10 8 0 15
-4 15 -10 0 -5 7 -10 15 -10 8 0 15 -4 15 -10 0 -5 7 -10 15 -10 8 0 15 -4 15
-10 0 -5 9 -10 20 -10 11 0 20 -4 20 -10 0 -5 7 -10 15 -10 8 0 15 -4 15 -10
0 -5 11 -10 25 -10 14 0 25 -4 25 -10 0 -5 11 -10 25 -10 14 0 25 -4 25 -10 0
-5 14 -10 30 -10 17 0 30 -4 30 -10 0 -5 14 -10 30 -10 17 0 30 -4 30 -10 0
-5 14 -10 30 -10 17 0 30 -4 30 -10 0 -5 14 -10 30 -10 17 0 30 -4 30 -10 0
-5 23 -10 50 -10 28 0 50 -4 50 -10 0 -6 90 -10 250 -10 160 0 250 4 250 10 0
6 23 10 50 10 28 0 50 5 50 10 0 6 16 10 35 10 19 0 35 5 35 10 0 6 14 10 30
10 17 0 30 5 30 10 0 6 14 10 30 10 17 0 30 5 30 10 0 6 14 10 30 10 17 0 30
5 30 10 0 6 11 10 25 10 14 0 25 5 25 10 0 6 11 10 25 10 14 0 25 5 25 10 0 6
9 10 20 10 11 0 20 5 20 10 0 6 11 10 25 10 14 0 25 5 25 10 0 6 9 10 20 10
11 0 20 5 20 10 0 6 9 10 20 10 11 0 20 5 20 10 0 6 9 10 20 10 11 0 20 5 20
10 0 6 7 10 15 10 8 0 15 5 15 10 0 6 7 10 15 10 8 0 15 5 15 10 0 6 9 10 20
10 11 0 20 5 20 10 0 6 9 10 20 10 11 0 20 5 20 10 0 6 28 10 65 10 37 0 65
-4 65 -10 0 -5 9 -10 20 -10 11 0 20 -4 20 -10 0 -5 9 -10 20 -10 11 0 20 -4
20 -10 0 -5 9 -10 20 -10 11 0 20 -4 20 -10 0 -5 11 -10 25 -10 14 0 25 -4 25
-10 0 -5 11 -10 25 -10 14 0 25 -4 25 -10 0 -5 16 -10 35 -10 19 0 35 -4 35
-10 0 -5 23 -10 50 -10 28 0 50 -4 50 -10 0 -5 14 -10 30 -10 17 0 30 -4 30
-10 0 -5 7 -10 15 -10 15 0 110 -92 185 -180 48 -56 428 -440 436 -440 3 0 23
-18 44 -40 21 -22 42 -40 47 -40 5 0 15 -9 23 -20 8 -11 18 -20 23 -20 4 0 30
-22 57 -50 27 -27 53 -50 57 -50 5 0 15 -9 23 -20 8 -11 19 -20 25 -20 6 0 17
-9 25 -20 8 -11 18 -20 23 -20 5 0 22 -13 37 -30 15 -16 32 -30 37 -30 5 0 15
-9 23 -20 8 -11 18 -20 23 -20 5 0 22 -13 37 -30 15 -16 32 -30 37 -30 5 0 15
-9 23 -20 8 -11 20 -20 27 -20 7 0 13 -4 13 -10 0 -5 6 -10 13 -10 7 0 19 -9
27 -20 8 -11 19 -20 25 -20 6 0 17 -9 25 -20 8 -11 19 -20 25 -20 6 0 17 -9
25 -20 8 -11 20 -20 27 -20 7 0 13 -4 13 -10 0 -5 7 -10 15 -10 8 0 15 -4 15
-10 0 -5 6 -10 13 -10 7 0 19 -9 27 -20 8 -11 18 -20 23 -20 15 0 74 -66 80
-89 5 -21 -46 -190 -109 -361 -58 -156 -71 -308 -33 -382 11 -22 25 -46 30
-52 36 -44 69 -76 78 -76 6 0 11 -4 11 -10 0 -5 7 -10 15 -10 8 0 15 -4 15
-10 0 -5 11 -10 25 -10 14 0 25 -4 25 -10 0 -6 35 -10 85 -10 50 0 85 4 85 10
0 6 11 10 25 10 14 0 25 5 25 10 0 6 5 10 10 10 17 0 77 65 98 106 22 44 46
149 62 274 24 180 92 391 144 446 6 6 18 22 26 34 8 12 35 44 60 70 25 26 52
58 60 70 8 12 32 41 52 64 21 22 56 61 78 86 22 25 57 64 78 87 20 23 48 56
62 73 14 17 42 49 63 71 20 22 37 44 37 49 0 4 13 22 29 39 17 18 33 41 36 52
4 10 10 19 14 19 5 0 14 13 21 30 7 16 16 30 20 30 3 0 17 22 30 50 13 27 26
50 30 50 5 0 88 167 124 253 46 108 42 287 -9 388 -27 52 -86 119 -105 119 -5
0 -10 5 -10 10 0 6 -7 10 -15 10 -8 0 -15 5 -15 10 0 6 -7 10 -15 10 -8 0 -15
5 -15 10 0 6 -11 10 -25 10 -14 0 -25 5 -25 10 0 6 -20 10 -45 10 -25 0 -45 5
-45 10 0 6 -32 10 -76 10 -72 0 -77 2 -105 31 -16 17 -29 40 -29 50 0 10 -4
19 -9 19 -5 0 -12 9 -16 20 -8 24 -79 100 -94 100 -6 0 -11 5 -11 10 0 6 -7
10 -15 10 -8 0 -15 5 -15 10 0 6 -9 10 -20 10 -11 0 -20 5 -20 10 0 6 -38 10
-95 10 -57 0 -95 -4 -95 -10 0 -5 -9 -10 -20 -10 -11 0 -20 -4 -20 -10 0 -5
-5 -10 -10 -10 -16 0 -96 -83 -114 -118 -60 -116 -80 -243 -96 -617 -23 -534
-34 -605 -92 -605 -15 0 -28 5 -28 10 0 6 -9 10 -20 10 -11 0 -20 5 -20 10 0
6 -7 10 -15 10 -8 0 -15 5 -15 10 0 6 -6 10 -13 10 -7 0 -19 9 -27 20 -8 11
-18 20 -23 20 -18 0 -352 354 -397 420 -8 12 -31 39 -50 60 -19 21 -42 48 -50
60 -8 12 -22 30 -30 40 -8 10 -22 28 -30 40 -8 12 -22 30 -30 40 -8 10 -22 28
-30 40 -14 20 -34 46 -58 76 -5 5 -15 21 -22 34 -7 13 -17 29 -22 34 -40 49
-48 61 -53 77 -4 11 -10 19 -15 19 -5 0 -11 8 -15 19 -3 10 -13 28 -23 39 -9
11 -24 30 -32 42 -14 20 -35 48 -59 76 -5 7 -27 45 -48 85 -37 73 -38 76 -34
164 12 238 -3 352 -60 467 -16 32 -29 67 -29 78 0 20 32 91 51 114 5 6 18 22
29 36 34 43 64 80 90 109 14 16 32 39 40 51 8 12 22 30 30 40 8 10 22 28 30
40 8 12 22 30 30 40 8 10 22 28 30 40 8 12 23 31 33 42 9 12 17 24 17 28 0 5
13 22 29 39 17 18 33 41 36 52 4 10 10 19 14 19 5 0 14 14 21 30 7 17 16 30
20 30 4 0 13 13 20 30 7 16 16 30 21 30 4 0 10 8 14 19 3 10 13 28 23 39 9 11
24 30 32 42 8 12 23 31 32 42 10 11 20 29 23 39 4 11 10 19 14 19 5 0 14 14
21 30 7 17 16 30 20 30 4 0 13 14 20 30 7 17 16 30 20 30 4 0 15 19 26 41 10
23 24 47 30 54 7 6 42 72 79 146 37 74 71 136 75 139 4 3 15 21 25 40 10 19
21 37 25 40 12 8 129 246 144 293 8 23 24 74 36 114 11 39 30 81 41 94 10 12
19 26 19 31 0 4 18 8 40 8 22 0 40 -4 40 -10 0 -5 6 -10 14 -10 7 0 19 -13 26
-30 7 -17 16 -30 20 -30 4 0 13 -13 20 -30 7 -16 16 -30 20 -30 4 0 13 -13 20
-30 7 -16 20 -38 29 -49 9 -10 23 -29 31 -41 8 -12 20 -28 26 -34 33 -34 44
-86 19 -86 -8 0 -15 -4 -15 -10 0 -5 -9 -10 -20 -10 -11 0 -20 -4 -20 -10 0
-5 -7 -10 -15 -10 -8 0 -15 -4 -15 -10 0 -5 -5 -10 -11 -10 -19 0 -49 -41 -49
-66 0 -30 20 -74 34 -74 7 0 18 -9 26 -20 8 -11 20 -20 27 -20 7 0 13 -4 13
-10 0 -5 7 -10 15 -10 8 0 15 -4 15 -10 0 -5 9 -10 20 -10 11 0 20 -4 20 -10
0 -5 7 -10 15 -10 8 0 15 -4 15 -10 0 -5 9 -10 20 -10 11 0 20 -4 20 -10 0 -5
11 -10 25 -10 14 0 25 -4 25 -10 0 -5 11 -10 25 -10 14 0 25 -4 25 -10 0 -5 9
-10 20 -10 11 0 20 -4 20 -10 0 -5 9 -10 20 -10 11 0 20 -4 20 -10 0 -5 11
-10 25 -10 14 0 25 -4 25 -10 0 -5 7 -10 16 -10 26 0 71 -60 60 -79 -10 -15
15 -81 29 -81 8 0 15 -4 15 -10 0 -6 35 -10 85 -10 50 0 85 4 85 10 0 6 16 10
35 10 19 0 35 5 35 10 0 6 14 10 30 10 17 0 30 5 30 10 0 6 14 10 30 10 17 0
30 5 30 10 0 6 14 10 30 10 17 0 30 5 30 10 0 6 14 10 30 10 17 0 30 5 30 10
0 6 14 10 30 10 17 0 30 5 30 10 0 6 11 10 25 10 14 0 25 5 25 10 0 6 11 10
25 10 14 0 25 5 25 10 0 6 14 10 30 10 17 0 30 5 30 10 0 6 11 10 25 10 14 0
25 5 25 10 0 6 11 10 25 10 14 0 25 5 25 10 0 6 11 10 25 10 14 0 25 5 25 10
0 6 11 10 25 10 14 0 25 5 25 10 0 6 11 10 25 10 14 0 25 5 25 10 0 6 11 10
25 10 14 0 25 5 25 10 0 6 9 10 20 10 11 0 20 5 20 10 0 6 9 10 20 10 11 0 20
5 20 10 0 6 9 10 20 10 11 0 20 5 20 10 0 6 7 10 15 10 8 0 15 5 15 10 0 6 9
10 20 10 11 0 20 5 20 10 0 6 9 10 20 10 11 0 20 5 20 10 0 6 9 10 20 10 11 0
20 5 20 10 0 6 7 10 15 10 8 0 15 5 15 10 0 6 9 10 20 10 11 0 20 5 20 10 0 6
9 10 20 10 11 0 20 5 20 10 0 6 7 10 15 10 8 0 15 5 15 10 0 6 9 10 20 10 11
0 20 5 20 10 0 6 9 10 20 10 11 0 20 5 20 10 0 6 7 10 15 10 8 0 15 5 15 10 0
6 9 10 20 10 11 0 20 5 20 10 0 6 9 10 20 10 11 0 20 5 20 10 0 6 9 10 20 10
11 0 20 5 20 10 0 6 7 10 15 10 8 0 15 5 15 10 0 6 9 10 20 10 11 0 20 5 20
10 0 6 7 10 15 10 8 0 15 5 15 10 0 6 9 10 20 10 11 0 20 5 20 10 0 6 9 10 20
10 11 0 20 5 20 10 0 6 9 10 20 10 11 0 20 5 20 10 0 6 9 10 20 10 11 0 20 5
20 10 0 6 14 10 30 10 17 0 30 5 30 10 0 6 23 10 50 10 28 0 50 -4 50 -10 0
-5 14 -10 30 -10 17 0 30 -4 30 -10 0 -5 16 -10 35 -10 19 0 35 -4 35 -10 0
-6 28 -10 65 -10 37 0 65 -4 65 -10 0 -6 35 -10 85 -10 50 0 85 4 85 10 0 6
23 10 50 10 28 0 50 5 50 10 0 6 16 10 35 10 19 0 35 5 35 10 0 6 11 10 25 10
14 0 25 5 25 10 0 6 9 10 20 10 11 0 20 5 20 10 0 6 9 10 20 10 11 0 20 5 20
10 0 6 7 10 15 10 8 0 15 5 15 10 0 6 9 10 20 10 11 0 20 5 20 10 0 6 9 10 20
10 11 0 20 5 20 10 0 6 9 10 20 10 11 0 20 5 20 10 0 6 14 10 30 10 17 0 30 5
30 10 0 6 9 10 20 10 11 0 20 5 20 10 0 6 9 10 20 10 11 0 20 5 20 10 0 6 9
10 20 10 11 0 20 5 20 10 0 6 7 10 15 10 8 0 15 5 15 10 0 6 7 10 15 10 8 0
15 5 15 10 0 6 6 10 13 10 6 0 23 14 37 31 14 17 35 41 47 53 34 37 80 137 94
204 12 56 11 73 -10 174 -12 61 -29 125 -38 142 -20 39 -20 89 2 151 27 76 25
217 -5 275 -12 24 -29 50 -36 58 -8 7 -14 17 -14 22 0 4 -13 22 -29 39 -17 18
-33 41 -36 52 -4 10 -10 19 -15 19 -13 0 -21 29 -30 112 -10 88 -43 162 -96
214 -19 19 -34 39 -34 44 0 6 -6 10 -13 10 -7 0 -19 9 -27 20 -8 11 -20 20
-27 20 -7 0 -13 5 -13 10 0 6 -9 10 -20 10 -11 0 -20 5 -20 10 0 6 -18 10 -40
10 -22 0 -40 5 -40 10 0 6 -11 10 -25 10 -14 0 -25 -4 -25 -10 0 -6 -27 -10
-60 -10 -33 0 -60 -4 -60 -10 0 -5 -13 -10 -30 -10 -16 0 -30 -4 -30 -10 0 -5
-18 -10 -40 -10 -22 0 -40 -4 -40 -10 0 -5 -11 -10 -25 -10 -14 0 -25 5 -25
10 0 6 -40 10 -100 10 -60 0 -100 -4 -100 -10 0 -5 -13 -10 -30 -10 -16 0 -30
-4 -30 -10 0 -5 -9 -10 -20 -10 -11 0 -20 -4 -20 -10 0 -5 -7 -10 -15 -10 -8
0 -15 -4 -15 -10 0 -5 -7 -10 -15 -10 -8 0 -15 -4 -15 -10 0 -5 -5 -10 -10
-10 -11 0 -125 -114 -168 -167 -12 -15 -31 -39 -42 -52 -11 -13 -20 -27 -20
-31 0 -5 -13 -22 -29 -39 -17 -18 -33 -41 -36 -52 -4 -10 -10 -19 -14 -19 -5
0 -14 -13 -21 -30 -7 -16 -16 -30 -21 -30 -4 0 -11 -9 -14 -20 -4 -11 -32 -47
-63 -80 -31 -32 -68 -73 -82 -90 -40 -49 -98 -110 -105 -110 -4 0 -20 -13 -35
-30 -15 -16 -31 -30 -35 -30 -4 0 -20 -13 -35 -30 -15 -16 -33 -30 -39 -30 -6
0 -11 -4 -11 -10 0 -5 -5 -10 -11 -10 -6 0 -24 -13 -39 -30 -15 -16 -33 -30
-39 -30 -6 0 -11 -4 -11 -10 0 -5 -6 -10 -13 -10 -7 0 -19 -9 -27 -20 -8 -11
-20 -20 -27 -20 -7 0 -13 -4 -13 -10 0 -5 -6 -10 -13 -10 -7 0 -19 -9 -27 -20
-8 -11 -20 -20 -27 -20 -7 0 -13 -4 -13 -10 0 -5 -6 -10 -13 -10 -7 0 -19 -9
-27 -20 -8 -11 -20 -20 -27 -20 -7 0 -13 -4 -13 -10 0 -5 -7 -10 -15 -10 -8 0
-15 -4 -15 -10 0 -5 -7 -10 -15 -10 -8 0 -15 -4 -15 -10 0 -5 -6 -10 -13 -10
-7 0 -19 -9 -27 -20 -8 -11 -20 -20 -27 -20 -7 0 -13 -4 -13 -10 0 -5 -7 -10
-15 -10 -8 0 -15 -4 -15 -10 0 -5 -7 -10 -15 -10 -8 0 -15 -4 -15 -10 0 -5 -7
-10 -15 -10 -8 0 -15 -4 -15 -10 0 -5 -9 -10 -20 -10 -11 0 -20 -4 -20 -10 0
-5 -7 -10 -15 -10 -8 0 -15 -4 -15 -10 0 -5 -7 -10 -15 -10 -8 0 -15 -4 -15
-10 0 -5 -9 -10 -20 -10 -11 0 -20 -4 -20 -10 0 -5 -7 -10 -15 -10 -8 0 -15
-4 -15 -10 0 -5 -13 -10 -30 -10 -16 0 -30 -4 -30 -10 0 -5 -7 -10 -15 -10 -8
0 -15 5 -15 10 0 6 -11 10 -25 10 -25 0 -115 83 -185 170 -14 17 -41 49 -60
70 -19 21 -45 52 -58 67 -12 15 -31 39 -42 52 -11 13 -20 27 -20 31 0 4 -8 16
-17 28 -10 11 -25 30 -33 42 -8 12 -23 31 -32 42 -10 12 -18 24 -18 28 0 4 -8
16 -17 28 -10 11 -25 30 -33 42 -8 12 -23 31 -32 42 -10 12 -18 24 -18 28 0 4
-9 18 -21 31 -26 30 -22 100 11 179 66 161 73 189 78 336 5 150 -13 297 -44
372 -37 87 -99 212 -104 212 -3 0 -16 20 -28 44 -17 36 -19 51 -12 77 5 18 17
93 25 168 9 75 23 183 31 241 23 151 23 694 0 875 -12 97 -16 213 -16 455 0
497 -19 771 -70 1005 -10 50 -27 128 -36 175 -9 47 -25 119 -36 160 -33 127
-86 322 -103 380 -9 30 -23 80 -31 110 -23 84 -61 190 -99 275 -9 22 -29 67
-42 100 -14 33 -36 84 -49 113 -13 29 -24 59 -24 67 0 7 -6 20 -14 27 -7 8
-21 29 -31 48 -25 49 -39 60 -75 60 -31 0 -42 -9 -97 -74 -7 -8 -29 -50 -49
-93 -98 -210 -199 -413 -206 -413 -5 0 -8 -9 -8 -20 0 -11 -4 -20 -10 -20 -5
0 -10 -6 -10 -14 0 -24 -16 -26 -38 -6 -12 11 -24 20 -27 20 -4 0 -24 18 -45
40 -21 22 -46 40 -54 40 -9 0 -16 5 -16 10 0 6 -11 10 -25 10 -14 0 -25 -4
-25 -10 0 -5 -6 -10 -14 -10 -8 0 -18 -9 -21 -20 -3 -11 -11 -20 -16 -20 -5 0
-9 -6 -9 -14 0 -7 -7 -38 -16 -67 -26 -92 -31 -112 -44 -177 -7 -34 -21 -72
-31 -84 -11 -11 -19 -25 -19 -30 0 -4 -29 -8 -65 -8 -37 0 -65 4 -65 10 0 6
-18 10 -40 10 -22 0 -40 5 -40 10 0 6 -18 10 -40 10 -22 0 -40 5 -40 10 0 6
-20 10 -45 10 -25 0 -45 5 -45 10 0 6 -25 10 -55 10 -30 0 -55 5 -55 10 0 6
-95 10 -265 10 -170 0 -265 -4 -265 -10 0 -6 -37 -10 -90 -10 -53 0 -90 -4
-90 -10 0 -6 -27 -10 -60 -10 -33 0 -60 -4 -60 -10 0 -5 -16 -10 -35 -10 -19
0 -35 -4 -35 -10 0 -5 -18 -10 -40 -10 -22 0 -40 -4 -40 -10 0 -5 -25 -10 -55
-10 -30 0 -55 -4 -55 -10 0 -5 -13 -10 -30 -10 -16 0 -30 -4 -30 -10 0 -5 -11
-10 -25 -10 -14 0 -25 -4 -25 -10 0 -5 -9 -10 -20 -10 -11 0 -20 -4 -20 -10 0
-6 -31 -10 -74 -10 -50 0 -76 -4 -80 -12 -5 -10 -7 -10 -12 0 -3 6 -15 12 -26
12 -29 0 -54 33 -74 98 -34 112 -72 162 -124 162 -17 0 -30 5 -30 13 0 8 -4 7
-11 -3 -8 -11 -12 -12 -16 -2 -2 6 -12 12 -22 12 -24 0 -53 64 -121 270 -32
96 -66 193 -75 215 -10 22 -30 69 -46 105 -15 36 -31 75 -34 86 -3 12 -13 31
-23 42 -9 11 -24 30 -32 41 -8 12 -20 21 -26 21 -7 0 -15 6 -17 13 -4 10 -6
10 -6 0z m3352 -346 c3 -26 0 -47 -4 -47 -5 0 -9 -6 -9 -14 0 -7 -8 -24 -19
-37 -10 -13 -17 -32 -15 -42 1 -9 -1 -15 -6 -12 -4 2 -10 -18 -14 -46 -4 -27
-10 -48 -14 -45 -4 2 -8 -12 -10 -32 -1 -20 -9 -47 -18 -60 -8 -13 -13 -29
-11 -37 3 -7 -1 -24 -8 -38 -7 -14 -11 -27 -9 -30 7 -7 -18 -67 -26 -62 -6 4
-22 -63 -37 -164 -4 -27 -3 -32 8 -25 11 6 12 4 4 -7 -5 -8 -10 -25 -9 -39 3
-75 5 -80 20 -80 8 0 12 -5 9 -11 -4 -6 -14 -8 -22 -5 -8 3 -11 2 -8 -3 3 -5
1 -12 -5 -16 -6 -4 -5 -15 4 -33 15 -29 3 -72 -20 -72 -7 0 -14 -5 -16 -12 -3
-7 -26 4 -64 29 -32 23 -115 74 -184 113 -69 39 -129 75 -133 79 -4 4 1 41 11
82 11 41 25 100 32 132 6 31 15 57 20 57 17 0 63 -66 97 -141 28 -59 44 -82
69 -95 25 -13 37 -15 45 -7 6 6 51 118 100 249 79 212 223 533 234 522 3 -2 6
-25 8 -51z m-3587 -192 c-22 -34 -20 -42 4 -14 25 31 25 19 -1 -25 -11 -19
-17 -41 -13 -47 4 -7 3 -9 -3 -6 -6 4 -14 0 -17 -9 -3 -8 -2 -13 2 -10 5 3 9
-1 9 -9 0 -8 -4 -12 -9 -9 -4 3 -8 -2 -8 -10 0 -9 -3 -16 -7 -16 -5 0 -9 -14
-10 -31 -1 -18 -9 -41 -16 -53 -8 -11 -16 -31 -20 -44 -4 -19 -3 -21 9 -11 8
6 17 10 20 7 3 -3 -9 -17 -25 -30 -23 -20 -27 -28 -18 -38 9 -10 9 -11 0 -6
-14 8 -41 -72 -45 -131 -1 -23 -5 -40 -9 -38 -4 3 -13 -2 -20 -11 -11 -13 -10
-17 4 -26 10 -5 15 -13 12 -19 -4 -5 -1 -9 4 -9 6 0 11 -5 11 -11 0 -6 -7 -8
-16 -5 -12 5 -15 2 -10 -10 3 -8 6 -22 6 -30 0 -9 5 -12 13 -8 6 4 1 -4 -13
-17 -21 -21 -22 -24 -7 -27 21 -4 21 -11 0 -35 -17 -19 -17 -19 4 -13 19 6 25
2 33 -19 13 -34 13 -33 -12 -37 -17 -2 -23 -10 -24 -28 0 -14 -8 -37 -17 -51
-10 -15 -16 -33 -15 -40 2 -8 -4 -14 -12 -14 -24 0 -36 -26 -38 -83 -2 -40 1
-51 10 -46 10 5 10 4 1 -6 -9 -10 -9 -18 -1 -33 8 -16 7 -23 -4 -31 -7 -6 -12
-20 -10 -31 2 -11 1 -17 -3 -13 -4 4 -11 33 -15 65 -5 43 -8 17 -9 -102 0 -88
-1 -167 -2 -175 -2 -37 4 -185 8 -197 3 -7 12 -13 20 -13 12 0 13 -3 4 -13 -6
-8 -8 -16 -5 -19 12 -12 -79 -6 -111 8 -19 8 -36 14 -37 13 -2 0 -11 3 -20 6
-9 4 -25 1 -35 -5 -16 -10 -16 -11 0 -6 12 4 17 0 17 -15 0 -14 5 -19 14 -16
8 3 17 -1 20 -9 3 -8 1 -14 -4 -14 -6 0 -10 -4 -10 -10 0 -5 9 -10 21 -10 11
0 17 -4 14 -10 -4 -6 -16 -8 -28 -5 -12 2 -16 2 -10 -1 8 -3 11 -15 7 -30 -3
-13 -2 -30 3 -37 14 -18 9 -102 -6 -102 -22 0 -30 -28 -15 -56 19 -37 18 -66
-3 -78 -17 -10 -17 -10 0 -11 12 0 16 -4 10 -12 -10 -17 -10 -78 0 -78 4 0 7
-4 7 -10 0 -5 -7 -10 -15 -10 -19 0 -19 -34 0 -54 8 -8 11 -17 7 -20 -5 -3 -7
-19 -4 -36 3 -23 0 -30 -12 -30 -18 0 -22 -25 -6 -35 7 -4 7 -11 2 -18 -5 -7
-10 -33 -11 -59 -2 -42 0 -46 19 -41 16 4 20 1 20 -16 0 -12 4 -20 9 -17 4 3
13 -6 19 -19 10 -21 9 -25 -3 -25 -8 0 -15 5 -15 11 0 6 -9 8 -20 4 -16 -5
-20 -2 -21 17 -1 18 -2 19 -6 5 -6 -23 26 -74 36 -58 11 17 36 -7 49 -46 8
-24 7 -33 -1 -37 -9 -5 -9 -7 1 -12 8 -4 12 -28 12 -68 0 -60 -1 -62 -25 -61
-14 1 -32 10 -40 21 -14 18 -14 17 -5 -8 7 -22 7 -26 -6 -21 -13 5 -14 -6 -10
-79 6 -84 30 -269 47 -363 20 -102 29 -173 38 -285 9 -122 24 -240 46 -355 7
-38 12 -71 10 -73 -6 -6 -207 62 -220 74 -7 7 -15 46 -19 87 -4 41 -18 119
-32 173 -39 153 -53 233 -53 308 -1 39 -5 95 -11 125 -20 113 -80 703 -96 941
-9 135 -17 360 -17 500 0 249 19 597 33 621 13 20 25 4 73 -93 58 -118 64
-125 110 -133 35 -7 38 -6 51 26 8 19 24 84 35 144 67 341 163 632 297 898 76
150 148 267 167 267 5 0 2 -11 -7 -25z m2154 -485 c0 -6 30 -10 70 -10 40 0
70 -4 70 -10 0 -5 20 -10 45 -10 25 0 45 -4 45 -10 0 -6 27 -10 60 -10 33 0
60 -4 60 -10 0 -5 12 -10 27 -10 56 0 280 -80 471 -167 63 -29 211 -119 257
-157 l30 -24 -30 5 c-16 3 -52 15 -80 28 -27 13 -70 28 -95 34 -25 6 -64 17
-87 25 -74 26 -245 65 -368 83 -137 20 -447 23 -453 4 -5 -15 -42 -14 -43 2 0
10 -2 10 -6 0 -3 -9 -30 -13 -84 -13 -46 0 -79 -4 -79 -10 0 -6 -28 -10 -65
-10 -37 0 -65 -4 -65 -10 0 -5 -22 -10 -50 -10 -33 0 -50 -4 -50 -12 0 -9 -4
-8 -10 2 -6 10 -10 11 -10 3 0 -9 -17 -13 -50 -13 -27 0 -50 -4 -50 -10 0 -5
-18 -10 -40 -10 -22 0 -40 -4 -40 -10 0 -5 -18 -10 -40 -10 -22 0 -40 -4 -40
-10 0 -5 -13 -10 -30 -10 -16 0 -30 -4 -30 -10 0 -5 -13 -10 -30 -10 -16 0
-30 -4 -30 -10 0 -5 -13 -10 -30 -10 -16 0 -30 -4 -30 -10 0 -5 -9 -10 -20
-10 -11 0 -20 -6 -20 -12 0 -9 -4 -8 -10 2 -6 10 -10 11 -10 3 0 -8 -14 -13
-35 -13 -19 0 -35 -4 -35 -10 0 -5 -20 -10 -45 -10 -25 0 -45 -4 -45 -10 0 -5
-22 -10 -48 -10 -43 0 -50 3 -61 28 -15 32 -35 91 -49 145 -12 44 2 107 23
107 8 0 15 5 15 10 0 6 7 10 15 10 8 0 15 5 15 10 0 6 9 10 20 10 11 0 20 5
20 10 0 6 9 10 20 10 11 0 20 5 20 10 0 6 18 10 40 10 22 0 40 5 40 10 0 6 18
10 40 10 22 0 40 5 40 10 0 6 14 10 30 10 17 0 30 5 30 10 0 6 20 10 45 10 25
0 45 5 45 10 0 6 33 10 80 10 47 0 80 4 80 10 0 6 25 10 55 10 30 0 55 5 55
10 0 6 33 10 80 10 47 0 80 4 80 10 0 6 68 10 185 10 117 0 185 -4 185 -10z
m-170 -344 c0 -2 -7 -9 -15 -16 -12 -10 -15 -10 -15 4 0 9 7 16 15 16 8 0 15
-2 15 -4z m-130 -27 c0 -5 -4 -9 -10 -9 -5 0 -10 7 -10 16 0 8 5 12 10 9 6 -3
10 -10 10 -16z m-132 -11 c-2 -6 -10 -14 -16 -16 -7 -2 -10 2 -6 12 7 18 28
22 22 4z m88 5 c-11 -3 -26 -11 -34 -19 -19 -19 -42 -17 -42 4 0 14 10 17 48
18 26 1 38 -1 28 -3z m-146 -23 c0 -5 -5 -10 -11 -10 -5 0 -7 5 -4 10 3 6 8
10 11 10 2 0 4 -4 4 -10z m-47 -27 c-7 -2 -19 -2 -25 0 -7 3 -2 5 12 5 14 0
19 -2 13 -5z m-1796 -55 c-3 -8 -6 -5 -6 6 -1 11 2 17 5 13 3 -3 4 -12 1 -19z
m-27 -18 c0 -5 -4 -10 -10 -10 -5 0 -10 5 -10 10 0 6 5 10 10 10 6 0 10 -4 10
-10z m-20 -54 c0 -3 -4 -8 -10 -11 -5 -3 -10 -1 -10 4 0 6 5 11 10 11 6 0 10
-2 10 -4z m-16 -258 c-13 -20 -19 -4 -15 35 l4 42 8 -35 c4 -19 5 -38 3 -42z
m-5 -80 c0 -31 -1 -31 -10 -10 -5 13 -7 28 -3 33 10 16 14 9 13 -23z m37 -15
c-10 -10 -19 5 -10 18 6 11 8 11 12 0 2 -7 1 -15 -2 -18z m2443 -59 c182 -52
278 -112 458 -286 82 -79 119 -108 137 -108 18 0 55 28 129 98 151 141 262
201 408 222 235 33 472 -99 572 -320 23 -51 93 -338 84 -346 -1 -2 -29 20 -62
47 -33 28 -94 66 -135 87 -65 31 -87 37 -162 40 -106 5 -164 -11 -252 -71
-106 -72 -204 -184 -263 -302 -100 -199 -128 -511 -73 -828 11 -66 20 -125 20
-131 0 -12 -144 -36 -209 -36 -21 0 -21 4 -21 248 0 271 -8 362 -45 509 -28
111 -105 277 -170 369 -230 322 -599 382 -938 152 -66 -45 -132 -125 -181
-218 -68 -131 -85 -223 -86 -471 -1 -138 2 -176 19 -236 24 -85 109 -268 145
-316 34 -44 28 -47 -114 -47 l-108 0 -33 37 c-50 58 -152 218 -203 319 -56
113 -93 223 -112 334 -17 103 -19 316 -3 437 31 243 205 516 423 665 117 81
306 156 451 179 80 12 229 0 324 -27z m-2476 -4 c-7 -25 -23 -37 -23 -16 0 23
11 46 20 41 5 -3 6 -14 3 -25z m-5 -98 c2 -7 -3 -12 -10 -12 -8 0 -15 7 -15
15 0 18 19 15 25 -3z m47 -31 c3 -5 1 -12 -5 -16 -5 -3 -10 1 -10 9 0 18 6 21
15 7z m2485 -537 c30 -9 71 -25 90 -37 48 -29 137 -114 171 -163 82 -120 157
-332 180 -514 16 -129 14 -442 -3 -524 l-13 -60 -95 -36 c-52 -20 -135 -55
-185 -79 -124 -60 -244 -111 -259 -111 -7 0 -39 19 -72 42 -32 23 -93 64 -134
91 -41 28 -96 71 -124 96 -99 92 -207 288 -252 456 -14 54 -18 107 -18 230 -1
148 1 165 26 231 112 306 393 460 688 378z m1461 -37 c103 -43 191 -134 250
-260 41 -88 49 -146 49 -342 0 -259 -32 -409 -127 -599 -38 -76 -111 -196
-118 -196 -2 0 -49 19 -106 41 -136 54 -246 92 -344 119 -44 11 -88 27 -98 34
-78 59 -98 522 -33 777 67 266 235 449 410 449 40 0 80 -8 117 -23z m-4171
-222 c0 -8 -4 -15 -10 -15 -5 0 -10 7 -10 15 0 8 5 15 10 15 6 0 10 -7 10 -15z
m3653 -1140 c257 -39 447 -120 674 -289 152 -114 220 -202 265 -346 21 -68 23
-94 23 -270 0 -179 -2 -198 -20 -225 -11 -17 -26 -52 -33 -80 -7 -27 -17 -54
-23 -60 -13 -13 -42 22 -89 106 -80 144 -187 221 -330 238 -116 15 -221 -2
-413 -64 -219 -72 -334 -92 -437 -76 -80 12 -154 36 -280 91 -167 72 -170 73
-191 54 -11 -9 -19 -28 -19 -41 0 -12 -4 -23 -9 -23 -5 0 -7 -9 -4 -20 3 -10
8 -18 12 -17 12 3 51 -38 51 -54 0 -10 11 -20 25 -23 16 -4 22 -11 19 -21 -4
-9 0 -15 10 -15 9 0 16 -4 16 -9 0 -8 30 -22 55 -25 6 -1 17 -6 25 -11 38 -25
63 -34 73 -28 6 4 7 1 2 -7 -5 -8 -3 -11 5 -8 22 7 24 28 3 30 -10 0 2 4 27 7
29 4 71 0 120 -12 102 -26 220 -19 374 23 65 17 124 29 132 26 23 -9 -5 -54
-78 -122 -73 -68 -175 -125 -268 -149 -82 -22 -225 -22 -311 0 -81 20 -286
121 -360 177 -76 58 -140 115 -139 124 1 4 -3 10 -8 13 -6 3 -14 19 -18 35 -5
21 -4 27 5 22 7 -5 11 0 11 13 0 16 6 21 25 21 21 0 25 5 25 30 0 21 10 39 35
61 19 17 33 36 32 42 -1 7 8 13 19 15 12 2 24 12 27 23 5 20 27 27 27 8 0 -8
4 -8 13 -1 20 16 76 24 114 17 30 -5 33 -8 21 -22 -11 -14 -10 -16 13 -10 19
5 29 3 33 -8 3 -8 10 -15 16 -15 6 0 8 5 4 12 -8 13 91 4 110 -10 6 -5 20 -12
31 -14 11 -3 29 -9 40 -13 16 -5 17 -5 5 4 -13 9 -12 11 6 11 13 0 24 -8 27
-20 3 -11 10 -20 17 -20 6 0 8 4 5 10 -6 10 7 14 80 25 22 4 51 13 64 22 16
10 37 13 62 10 22 -3 39 -2 39 2 0 4 12 8 26 9 25 2 59 21 51 28 -2 2 -50 -5
-108 -16 -57 -11 -145 -20 -195 -20 -132 0 -319 41 -446 97 -66 29 -70 41 -38
112 15 32 20 64 20 125 0 80 -15 135 -64 249 l-17 38 113 54 c171 81 427 164
588 188 60 10 193 6 283 -8z m-2263 -20 c0 -2 -10 -10 -22 -16 -21 -11 -22
-11 -9 4 13 16 31 23 31 12z m774 -19 c170 -38 323 -155 391 -297 58 -123 65
-247 20 -342 -20 -43 -102 -120 -118 -110 -6 3 -4 9 5 14 10 6 14 18 10 35 -3
16 1 29 8 34 8 5 14 18 15 29 1 11 -3 17 -8 14 -5 -3 -6 3 -2 16 10 34 -37
167 -55 156 -6 -3 -7 0 -4 8 3 8 -2 22 -11 31 -12 12 -13 16 -3 16 7 0 -1 7
-18 16 -16 8 -38 28 -47 44 -12 19 -23 27 -33 23 -14 -5 -14 -3 -3 16 8 11 20
21 27 21 8 0 0 12 -17 27 -17 15 -31 33 -31 41 0 7 -5 10 -12 6 -7 -4 -8 -3
-4 4 4 7 4 17 0 23 -5 8 -8 8 -14 0 -4 -8 -15 -5 -33 10 -15 11 -25 25 -22 30
9 13 -9 11 -24 -3 -7 -7 -12 -8 -11 -3 5 23 -1 35 -17 35 -15 0 -16 -2 -3 -10
9 -6 10 -10 3 -10 -6 0 -19 7 -28 16 -13 14 -18 14 -32 2 -14 -11 -15 -11 -9
0 6 10 3 13 -10 11 -11 -1 -36 5 -56 14 -44 20 -180 30 -377 29 -150 0 -161 5
-65 33 148 45 439 55 588 21z m2256 -65 c0 -9 -4 -21 -8 -28 -11 -17 -57 20
-49 39 8 21 57 11 57 -11z m-2132 -171 c4 -12 -14 -30 -30 -30 -4 0 -7 11 -6
24 2 25 28 30 36 6z m-3288 -4 c113 -16 241 -41 278 -56 19 -8 22 -17 22 -71
0 -52 -3 -62 -20 -66 -11 -3 -20 -8 -20 -12 0 -4 -14 -15 -31 -25 -18 -11 -29
-14 -25 -7 4 6 1 11 -8 11 -21 0 -20 -19 2 -37 15 -13 15 -13 -6 -3 -26 12
-53 3 -31 -11 8 -5 9 -9 3 -9 -18 0 -24 12 -14 25 8 9 6 14 -5 19 -9 3 -18 0
-21 -7 -2 -7 -14 -13 -24 -14 -11 -1 -18 1 -16 5 3 4 -4 8 -15 8 -19 0 -20 -1
-2 -14 10 -7 29 -15 43 -18 60 -13 75 -21 75 -40 1 -25 -33 -44 -67 -37 -18 4
-28 1 -28 -6 0 -7 -4 -9 -10 -6 -5 3 -16 3 -22 -2 -7 -4 -35 -8 -62 -10 -49
-2 -70 -16 -61 -41 7 -18 -24 -27 -45 -14 -11 7 -28 8 -46 2 -25 -7 -26 -8 -6
-9 12 -1 22 -6 22 -12 0 -13 -41 -1 -53 15 -5 7 -7 3 -5 -9 3 -18 -3 -20 -49
-20 -47 0 -92 -15 -47 -15 16 -1 15 -3 -6 -14 -19 -11 -28 -12 -42 -2 -22 15
-78 8 -85 -10 -3 -8 -12 -14 -20 -14 -8 0 -11 5 -8 10 11 18 -4 11 -25 -12
-11 -12 -23 -19 -26 -15 -3 3 -17 2 -30 -3 -15 -6 -24 -6 -24 0 0 6 -4 10 -10
10 -5 0 -10 -7 -10 -16 0 -13 -3 -14 -14 -5 -10 8 -16 9 -21 1 -3 -5 -16 -10
-28 -10 -13 0 -32 -7 -43 -15 -12 -8 -24 -11 -28 -7 -4 3 -11 0 -16 -8 -4 -7
-19 -15 -31 -17 -13 -2 -30 -10 -39 -18 -9 -8 -22 -15 -29 -15 -7 0 -9 -5 -5
-11 3 -6 -1 -10 -12 -9 -33 4 -45 0 -38 -11 4 -8 -1 -9 -17 -4 -20 7 -22 6
-12 -7 10 -12 10 -15 -2 -15 -8 0 -15 4 -15 9 0 5 -5 6 -10 3 -6 -4 -7 -11 -4
-17 4 -7 2 -8 -5 -4 -10 7 -30 -2 -131 -61 -19 -11 -80 -46 -134 -78 -175
-102 -482 -315 -608 -422 -25 -21 -63 -53 -86 -72 -23 -19 -39 -38 -36 -43 3
-5 1 -7 -4 -6 -16 5 -74 -43 -69 -57 3 -7 -1 -12 -10 -11 -9 0 -26 -18 -40
-44 -13 -25 -28 -47 -33 -48 -6 -2 -8 -8 -4 -13 3 -5 -1 -9 -8 -9 -9 0 -9 -3
2 -10 21 -14 33 -12 24 3 -4 6 -3 9 1 5 12 -11 15 -57 4 -64 -5 -3 -7 -10 -4
-15 3 -5 0 -6 -7 -4 -17 7 -38 -47 -31 -76 5 -16 3 -20 -7 -14 -10 6 -12 1 -8
-21 2 -20 -2 -36 -14 -49 -11 -11 -16 -26 -12 -37 3 -12 -4 -26 -23 -43 -22
-19 -25 -27 -15 -33 11 -7 10 -10 -3 -15 -9 -4 -13 -3 -10 3 3 6 1 10 -4 10
-10 0 -15 -14 -12 -33 1 -5 -3 -6 -7 -3 -9 5 -92 -97 -92 -113 0 -5 -7 -14
-15 -21 -9 -7 -14 -19 -11 -26 3 -7 0 -16 -6 -20 -7 -5 -8 -2 -3 6 6 9 4 11
-5 5 -10 -6 -9 -11 4 -20 16 -12 15 -17 -9 -70 -14 -32 -25 -63 -25 -70 0 -6
-8 -19 -18 -28 -21 -19 -27 -64 -11 -83 21 -25 -15 -16 -57 14 -66 48 -68 54
-49 114 40 124 97 218 246 405 l41 52 -28 26 c-57 50 -67 46 -163 -49 -111
-110 -124 -105 -79 33 63 193 242 402 533 622 116 88 451 308 575 377 380 212
679 339 993 423 166 44 181 51 198 93 11 25 10 30 -6 42 -28 20 -94 26 -164
15 -71 -11 -103 -7 -141 19 -14 10 -42 25 -62 33 -77 32 -46 37 227 37 l265 0
21 42 21 42 -42 36 c-38 32 -44 50 -16 50 6 0 58 -7 116 -14z m3320 -26 c0 -5
-4 -10 -10 -10 -5 0 -10 5 -10 10 0 6 5 10 10 10 6 0 10 -4 10 -10z m-2697
-99 c156 -41 501 -143 687 -204 268 -88 558 -224 685 -319 57 -43 76 -65 103
-118 57 -112 26 -125 -73 -31 -115 110 -294 215 -347 204 -15 -3 -25 -9 -23
-14 15 -23 -160 -152 -265 -195 -136 -55 -291 -77 -385 -54 -22 6 -69 13 -105
16 -36 3 -87 9 -115 14 -27 5 -93 14 -145 20 -52 7 -116 15 -142 18 l-47 7 30
40 c16 22 32 48 35 57 4 10 11 15 18 11 6 -3 6 0 -1 8 -19 20 -16 24 19 26 30
2 57 25 38 31 -6 2 -10 8 -10 14 0 6 7 8 15 4 9 -3 15 0 15 8 0 8 -5 16 -10
18 -6 2 -12 25 -14 52 -4 49 -14 66 -57 99 -13 9 -18 17 -11 17 7 0 12 5 12
11 0 5 -4 7 -10 4 -5 -3 -10 1 -10 9 0 8 5 18 11 21 18 12 -2 68 -37 105 -31
32 -34 39 -34 97 0 36 4 63 10 63 6 0 79 -18 163 -39z m-61 -413 c-2 -10 -11
-18 -19 -18 -10 0 -13 6 -9 16 3 9 6 22 6 30 0 12 3 12 13 2 8 -7 12 -20 9
-30z m-952 22 c0 -5 -5 -10 -11 -10 -5 0 -7 5 -4 10 3 6 8 10 11 10 2 0 4 -4
4 -10z m8610 -69 c42 -42 90 -115 90 -138 0 -4 -37 -8 -82 -8 -80 0 -85 -1
-143 -41 -33 -22 -59 -45 -57 -52 1 -7 -1 -11 -6 -9 -10 3 -94 -75 -87 -81 3
-3 12 3 21 14 15 18 15 17 1 -6 -9 -14 -20 -24 -25 -23 -5 1 -18 -7 -27 -17
-17 -19 -17 -20 0 -20 17 0 17 -1 0 -20 -16 -17 -16 -20 -2 -26 8 -3 18 -12
21 -20 3 -8 1 -12 -4 -9 -6 3 -7 -1 -4 -9 3 -9 10 -16 15 -16 4 0 6 -6 3 -13
-3 -10 -20 -13 -55 -11 -54 2 -60 -1 -98 -65 -14 -22 -28 -38 -33 -35 -5 3 -6
11 -2 17 3 7 -8 -4 -25 -23 -33 -38 -41 -60 -13 -39 15 13 16 12 4 -3 -8 -10
-20 -14 -29 -11 -11 5 -15 2 -12 -8 3 -8 -8 -26 -23 -41 -15 -15 -28 -24 -28
-21 0 3 -36 -30 -79 -73 -88 -88 -174 -169 -241 -229 -25 -22 -44 -43 -42 -48
1 -5 -1 -6 -6 -3 -4 2 -21 -6 -38 -20 -16 -14 -24 -23 -18 -20 6 3 11 -1 11
-9 0 -10 -5 -11 -16 -5 -11 6 -28 -1 -58 -23 -24 -17 -43 -34 -43 -39 0 -4 -3
-7 -7 -6 -5 1 -26 -9 -48 -23 -22 -14 -74 -44 -115 -66 -41 -22 -121 -66 -178
-99 -57 -32 -117 -66 -133 -74 -16 -9 -26 -20 -22 -25 4 -4 3 -5 -4 -1 -13 7
-93 -38 -93 -54 0 -5 -6 -7 -14 -4 -8 3 -25 -6 -39 -20 -15 -14 -29 -26 -32
-26 -16 0 -124 -78 -117 -85 4 -5 2 -5 -4 -2 -6 4 -22 -2 -34 -13 -13 -11 -28
-20 -33 -20 -6 0 -19 -7 -29 -17 -29 -26 -22 2 17 73 48 85 124 151 345 298
165 109 452 319 620 453 281 226 349 295 509 516 146 203 158 218 244 305 70
72 183 142 229 142 10 0 41 -22 68 -49z m-4600 -45 c0 -3 -4 -8 -10 -11 -5 -3
-10 -1 -10 4 0 6 5 11 10 11 6 0 10 -2 10 -4z m-330 -136 c0 -5 10 -10 23 -11
14 0 42 -22 77 -60 30 -33 94 -100 143 -150 48 -49 87 -92 87 -95 0 -11 -76
-94 -87 -94 -5 0 -15 -9 -23 -20 -8 -11 -19 -20 -25 -20 -6 0 -17 -9 -25 -20
-8 -11 -20 -20 -27 -20 -7 0 -13 -4 -13 -10 0 -5 -7 -10 -15 -10 -8 0 -15 -4
-15 -10 0 -5 -7 -10 -15 -10 -8 0 -15 -4 -15 -10 0 -5 -9 -10 -20 -10 -11 0
-20 -4 -20 -10 0 -5 -9 -10 -20 -10 -11 0 -20 -4 -20 -10 0 -5 -9 -10 -20 -10
-11 0 -20 -4 -20 -10 0 -5 -7 -10 -15 -10 -8 0 -15 -4 -15 -10 0 -5 -7 -10
-15 -10 -8 0 -15 -4 -15 -10 0 -5 -7 -10 -15 -10 -8 0 -15 -4 -15 -10 0 -5 -7
-10 -15 -10 -8 0 -15 -4 -15 -10 0 -5 -11 -10 -25 -10 -14 0 -25 -4 -25 -10 0
-5 -11 -10 -25 -10 -14 0 -25 -4 -25 -10 0 -5 -11 -10 -25 -10 -14 0 -25 -4
-25 -10 0 -5 -18 -10 -40 -10 -22 0 -40 -4 -40 -10 0 -21 -27 -9 -39 18 -26
55 -54 150 -72 242 -64 331 -69 377 -47 425 10 23 16 25 75 25 35 0 63 4 63
10 0 6 48 10 125 10 77 0 125 4 125 10 0 6 30 10 70 10 40 0 70 4 70 10 0 6 7
10 15 10 8 0 15 -4 15 -10z m-727 -49 c20 -8 27 -17 27 -37 0 -29 65 -373 107
-569 92 -425 343 -1028 578 -1389 32 -48 54 -90 51 -93 -8 -8 -306 140 -416
207 -191 116 -510 348 -510 370 0 16 74 16 90 0 8 -9 12 -11 8 -5 -4 6 11 10
43 10 30 0 48 -4 45 -10 -4 -12 40 -12 51 0 5 4 3 5 -3 2 -10 -6 -30 11 -49
42 -6 10 -4 12 4 6 9 -5 9 -1 -1 14 -7 12 -19 19 -25 16 -7 -2 -13 0 -13 5 0
6 5 10 10 10 6 0 10 5 10 11 0 6 -7 8 -17 5 -9 -4 -20 -1 -25 6 -7 9 -8 7 -4
-7 3 -11 -3 -36 -14 -55 -13 -25 -18 -29 -18 -15 0 11 -3 28 -7 37 -5 12 -2
20 9 24 9 3 16 11 16 18 0 6 16 36 35 66 28 44 32 56 22 68 -6 8 -59 37 -117
64 -180 84 -252 122 -240 126 9 3 9 7 -1 13 -11 7 -10 9 3 9 9 0 20 4 23 10 3
5 0 8 -7 5 -9 -4 -12 4 -11 27 1 18 2 49 3 68 1 29 3 32 10 15 6 -14 8 -7 5
25 -2 28 3 58 13 80 10 19 18 46 20 60 2 14 9 34 16 45 7 11 19 43 26 70 7 28
27 79 44 115 17 36 31 70 31 75 1 6 5 9 10 8 6 -1 11 9 11 21 1 12 15 51 30
87 28 61 29 70 28 213 l-1 148 36 -5 c20 -3 48 -10 64 -16z m5535 -63 c-2 -7
5 -12 15 -10 9 2 17 -1 17 -6 0 -10 -23 -22 -41 -22 -10 0 -12 33 -2 43 10 10
13 8 11 -5z m-3017 -145 c12 -15 12 -16 -4 -10 -10 4 -16 3 -12 -3 3 -5 -7
-16 -22 -24 l-28 -15 25 -1 25 -2 -28 -10 c-21 -7 -25 -13 -17 -23 5 -7 9 -23
8 -35 -4 -28 27 -36 42 -12 5 10 10 13 10 7 0 -5 5 -3 10 5 8 13 10 12 10 -3
0 -10 4 -16 9 -13 13 9 21 -48 11 -83 -5 -17 -6 -31 -3 -31 3 0 0 -7 -7 -15
-7 -8 -10 -22 -6 -30 3 -9 2 -14 -2 -11 -4 3 -14 -4 -21 -16 -7 -11 -8 -17 -2
-13 6 3 11 -1 11 -9 0 -8 -4 -18 -10 -21 -5 -3 -10 -14 -10 -23 0 -59 -204
-366 -283 -426 -41 -32 -186 -96 -216 -96 -29 0 -27 9 19 107 35 75 44 86 78
99 36 15 74 54 52 54 -6 0 -13 -7 -16 -15 -4 -8 -11 -15 -18 -15 -6 0 1 11 15
23 14 13 24 28 22 34 -4 10 4 19 42 51 18 15 20 36 3 27 -7 -4 -2 3 11 15 21
18 22 23 10 31 -11 7 -11 9 4 9 15 0 18 7 15 33 -2 17 -7 30 -13 27 -5 -3 -9
-9 -7 -13 1 -4 -5 -15 -13 -23 -8 -9 -13 -20 -10 -25 4 -5 2 -9 -3 -9 -14 0
-23 42 -12 55 5 6 12 34 16 62 3 29 12 54 20 57 8 3 14 12 14 21 0 8 5 15 11
15 7 0 18 8 25 18 13 16 14 16 8 -3 -5 -16 -4 -17 5 -5 6 8 11 21 11 29 0 8 9
25 21 37 11 12 22 35 24 50 1 16 8 30 14 32 6 2 9 8 5 13 -3 5 2 12 10 15 9 3
16 10 16 15 0 22 63 95 88 100 15 4 28 7 28 8 1 0 8 -7 15 -16z m-6434 -69
c-3 -3 -12 -4 -19 -1 -8 3 -5 6 6 6 11 1 17 -2 13 -5z m6440 -20 c-3 -3 -12
-4 -19 -1 -8 3 -5 6 6 6 11 1 17 -2 13 -5z m-501 -161 c-8 -32 -34 -134 -56
-228 -22 -93 -46 -185 -51 -203 l-11 -34 -30 29 c-32 30 -258 363 -258 380 0
5 38 13 85 17 89 6 210 40 285 80 25 13 46 22 48 21 2 -2 -3 -29 -12 -62z
m976 -24 c35 -34 54 -55 44 -48 -18 13 -19 12 -13 -4 4 -11 3 -16 -4 -12 -6 4
-8 13 -5 21 4 10 -2 14 -18 14 -13 0 -29 7 -36 15 -7 8 -19 15 -26 15 -8 0
-14 3 -15 8 0 4 -2 17 -3 30 -2 12 1 22 6 22 4 0 36 -28 70 -61z m2225 21 c1
-11 -2 -20 -8 -20 -5 0 -9 -5 -9 -11 0 -5 5 -7 10 -4 6 4 9 -10 9 -37 -1 -27
-3 -34 -6 -18 -3 14 -9 29 -14 35 -14 14 -11 75 4 75 7 0 13 -9 14 -20z
m-4297 -70 c0 -5 5 -10 11 -10 24 0 38 -32 59 -131 12 -57 27 -113 33 -124 20
-38 12 -155 -16 -238 -30 -86 -75 -180 -88 -185 -5 -2 -9 -12 -9 -23 0 -10 -4
-19 -8 -19 -11 0 -89 -168 -138 -295 -20 -55 -43 -108 -49 -118 -11 -16 -13
-16 -28 1 -27 29 -151 288 -217 452 -57 140 -140 373 -140 391 0 4 15 11 32
15 41 9 152 56 156 66 2 4 10 8 18 8 8 0 14 5 14 10 0 6 7 10 15 10 8 0 15 5
15 10 0 6 7 10 15 10 8 0 15 5 15 10 0 6 9 10 20 10 11 0 20 5 20 10 0 6 7 10
15 10 8 0 15 5 15 10 0 6 7 10 15 10 8 0 15 5 15 10 0 6 7 10 15 10 8 0 15 5
15 10 0 6 6 10 13 10 7 0 19 9 27 20 8 11 22 20 32 20 10 0 18 5 18 10 0 6 14
10 30 10 17 0 30 5 30 10 0 6 7 10 15 10 8 0 15 -4 15 -10z m-5238 -22 c-9 -9
-15 -9 -24 0 -9 9 -7 12 12 12 19 0 21 -3 12 -12z m7368 -29 c0 -6 -4 -7 -10
-4 -5 3 -10 11 -10 16 0 6 5 7 10 4 6 -3 10 -11 10 -16z m35 -9 c-3 -5 -11
-10 -16 -10 -6 0 -7 5 -4 10 3 6 11 10 16 10 6 0 7 -4 4 -10z m28 -30 c3 -11
1 -18 -4 -14 -5 3 -9 1 -9 -4 0 -17 13 -22 28 -9 11 9 11 4 -2 -15 -18 -27
-35 -36 -37 -20 -5 29 -4 60 3 56 4 -3 8 2 8 10 0 22 7 20 13 -4z m-190 -6 c7
1 9 1 5 -1 -21 -12 -4 -22 27 -18 23 3 34 0 32 -8 -1 -6 4 -11 11 -12 7 0 17
-7 22 -15 5 -8 12 -12 15 -8 4 3 -1 18 -11 32 -29 45 -4 43 36 -1 21 -24 43
-43 49 -43 6 0 11 -5 11 -11 0 -5 -4 -7 -10 -4 -5 3 -10 1 -10 -5 0 -6 -4 -8
-10 -5 -5 3 -10 1 -10 -5 0 -6 12 -8 30 -5 17 3 30 1 30 -4 0 -6 -9 -8 -20 -6
-22 4 -28 -19 -7 -29 6 -3 -1 -4 -18 -2 -28 4 -28 3 -10 -10 10 -8 27 -14 37
-14 11 0 18 -7 18 -18 0 -25 19 -42 47 -42 26 0 28 -3 11 -30 -10 -16 -9 -23
7 -41 14 -16 16 -23 8 -26 -20 -7 -17 -89 3 -97 12 -4 14 -1 9 14 -4 11 -2 20
3 20 10 0 26 -29 24 -42 -1 -5 7 -8 17 -8 11 0 23 -4 26 -10 3 -5 -1 -10 -9
-10 -9 0 -16 -5 -16 -11 0 -5 5 -7 10 -4 6 3 10 1 10 -4 0 -6 -5 -11 -10 -11
-6 0 -10 -8 -8 -17 2 -10 -2 -17 -9 -16 -8 2 -10 -4 -6 -14 4 -11 2 -14 -5 -9
-6 4 -18 -4 -28 -19 -18 -28 -117 -101 -180 -133 l-41 -21 -16 37 c-18 42 -19
72 -3 72 6 0 3 5 -6 11 -10 5 -18 17 -18 24 0 8 -7 15 -15 15 -8 0 -12 6 -9
14 3 8 1 17 -5 21 -6 3 -11 17 -11 30 0 13 -7 31 -16 39 -8 9 -14 28 -13 44 2
15 1 32 -3 37 -18 32 -18 319 1 364 8 19 17 29 19 23 2 -6 9 -10 15 -8z
m-7383 -16 c0 -5 -10 -8 -21 -8 -18 0 -19 -2 -9 -15 10 -13 9 -15 -9 -15 -28
0 -27 -20 2 -21 l22 0 -23 -11 c-17 -9 -26 -8 -40 4 -9 9 -24 13 -32 11 -13
-4 -13 -3 0 6 10 7 18 6 27 -1 10 -8 13 -6 13 6 0 9 5 16 11 16 6 0 9 6 6 14
-3 8 -3 16 -1 19 8 8 54 3 54 -5z m-170 -89 l-13 -22 28 21 c33 26 55 28 55 6
0 -10 -7 -14 -22 -12 -13 2 -28 -3 -33 -10 -6 -7 -18 -10 -28 -7 -15 7 -15 8
1 30 21 28 28 25 12 -6z m7811 -2 c-10 -9 -11 -8 -5 6 3 10 9 15 12 12 3 -3 0
-11 -7 -18z m24 -17 c4 -6 3 -10 -2 -9 -20 3 -27 -2 -13 -11 8 -5 10 -10 4
-10 -6 0 -18 8 -25 17 -8 10 -9 14 -2 10 6 -4 14 -3 18 3 8 13 12 13 20 0z
m-7755 -10 c0 -5 -9 -10 -21 -10 -11 0 -18 -4 -14 -9 3 -6 -3 -15 -14 -20 -24
-13 -33 5 -17 32 11 18 66 24 66 7z m7800 -65 c0 -5 -5 -3 -10 5 -5 8 -10 20
-10 25 0 6 5 3 10 -5 5 -8 10 -19 10 -25z m1600 25 c0 -5 -5 -10 -11 -10 -5 0
-7 5 -4 10 3 6 8 10 11 10 2 0 4 -4 4 -10z m-1648 -44 c-3 -5 -11 -1 -18 8 -7
10 -17 15 -23 11 -7 -3 -8 0 -5 9 5 14 9 13 29 -2 13 -9 20 -21 17 -26z
m-1542 -13 c53 -75 136 -174 159 -190 12 -8 21 -20 21 -27 0 -20 -113 -264
-165 -358 -65 -116 -146 -238 -157 -238 -6 0 -8 143 -6 369 l3 370 26 28 c14
15 32 43 39 61 17 45 41 40 80 -15z m3132 -3 c6 0 6 -6 -2 -15 -7 -8 -20 -14
-29 -13 -9 2 -17 -4 -17 -12 -1 -8 -2 -20 -3 -27 0 -7 -19 -17 -41 -23 -33 -9
-40 -15 -40 -35 0 -16 -6 -25 -15 -25 -8 0 -15 5 -15 10 0 6 6 10 13 10 8 0 8
3 -2 9 -8 5 -21 7 -28 4 -9 -4 -11 -8 -4 -12 5 -4 6 -12 2 -20 -6 -9 -10 -7
-14 8 -5 22 7 37 37 42 11 2 21 10 24 18 3 9 0 11 -8 6 -9 -5 -11 -4 -6 4 6 9
11 9 22 0 11 -9 16 -6 25 19 6 19 19 32 35 36 14 4 22 11 19 16 -3 5 -1 11 4
14 5 4 12 -2 14 -11 3 -13 5 -11 7 7 2 18 4 20 7 8 2 -10 9 -18 15 -18z
m-5768 14 c12 -5 13 -9 3 -19 -9 -9 -14 -10 -19 -1 -6 8 -8 8 -8 -1 0 -8 -9
-8 -37 0 l-38 12 30 6 c43 9 51 10 69 3z m-107 -26 c-3 -8 -6 -5 -6 6 -1 11 2
17 5 13 3 -3 4 -12 1 -19z m5659 -117 c-4 -5 0 -11 6 -14 7 -2 9 -8 5 -13 -9
-10 -28 16 -21 28 3 4 7 8 10 8 3 0 3 -4 0 -9z m-10561 -21 c23 -11 77 -57
121 -103 68 -70 529 -586 779 -871 112 -127 487 -550 546 -615 27 -30 49 -57
49 -61 0 -9 -25 -16 -92 -25 -33 -5 -48 -4 -48 4 0 9 -153 184 -285 327 -5 6
-48 53 -95 105 -47 52 -112 123 -145 159 -79 85 -144 157 -230 255 -112 128
-363 403 -450 494 -80 83 -162 141 -200 141 -35 -1 -98 -35 -139 -76 -72 -73
-181 -255 -201 -337 -4 -15 -11 -27 -16 -27 -30 0 16 202 78 343 65 149 138
242 228 290 39 21 51 21 100 -3z m4985 -20 c0 -5 -2 -10 -4 -10 -3 0 -8 5 -11
10 -3 6 -1 10 4 10 6 0 11 -4 11 -10z m95 -20 c-4 -13 -2 -19 5 -18 6 2 19
-18 29 -44 23 -59 58 -108 77 -108 8 0 12 -4 9 -10 -4 -6 1 -7 11 -3 13 5 15
3 9 -7 -5 -8 -4 -11 3 -6 14 8 163 -46 204 -76 18 -12 34 -22 36 -20 1 1 14 2
30 2 l27 -1 -37 -34 c-21 -20 -38 -39 -38 -43 0 -4 -10 -23 -22 -42 -12 -19
-23 -41 -24 -48 -5 -26 -35 -63 -46 -56 -7 5 -9 2 -5 -9 3 -9 2 -19 -3 -22
-19 -12 -9 -24 48 -56 31 -18 61 -39 65 -46 4 -7 19 -13 32 -13 14 0 25 -5 25
-11 0 -5 4 -8 9 -5 5 3 31 -5 58 -18 26 -14 74 -36 106 -50 31 -14 81 -37 110
-50 28 -13 69 -29 89 -37 20 -7 34 -17 31 -21 -3 -5 1 -8 8 -7 8 2 29 -1 48
-5 25 -6 30 -11 20 -18 -11 -7 -9 -8 6 -7 33 3 75 -12 75 -27 0 -12 4 -12 21
-3 15 8 19 8 15 0 -5 -7 1 -11 14 -11 12 0 19 -4 16 -9 -4 -5 2 -7 13 -4 10 3
22 0 25 -6 4 -5 14 -7 23 -4 11 4 14 3 9 -5 -5 -8 0 -12 14 -12 14 0 19 -4 14
-12 -5 -8 -2 -9 9 -5 10 3 17 3 17 -1 0 -5 19 -12 43 -18 35 -7 42 -13 41 -31
-1 -13 3 -20 7 -17 5 3 7 10 4 15 -7 10 6 12 30 3 14 -6 14 -8 -2 -28 -10 -11
-11 -15 -3 -8 20 17 30 15 23 -5 -7 -17 -6 -17 10 -1 17 16 20 16 52 1 19 -9
35 -21 35 -25 0 -5 4 -7 8 -4 4 2 14 0 22 -6 13 -8 12 -9 -1 -5 -12 4 -18 -2
-22 -21 -5 -23 -4 -25 8 -9 15 20 29 23 22 3 -4 -10 1 -12 16 -9 16 3 18 2 9
-5 -11 -8 -11 -10 0 -14 8 -3 23 1 33 9 12 9 14 14 5 11 -8 -3 -24 3 -34 13
-28 27 -17 24 69 -19 42 -21 72 -42 68 -47 -4 -4 -3 -5 4 -2 13 8 143 -48 143
-62 0 -19 -19 -21 -58 -6 -21 9 -43 15 -48 13 -13 -4 -55 28 -47 36 4 4 -1 4
-12 0 -11 -4 -26 -16 -33 -26 -12 -16 -16 -17 -49 -3 -20 8 -38 13 -41 10 -3
-3 0 -5 6 -5 6 0 9 -8 6 -17 -5 -15 -4 -16 5 -3 9 12 11 11 11 -8 0 -13 4 -32
10 -42 8 -16 5 -20 -25 -30 -52 -17 -78 -56 -72 -107 3 -30 1 -41 -7 -36 -7 4
-6 1 1 -9 7 -8 9 -19 5 -24 -4 -4 1 -2 10 5 9 7 23 9 29 5 22 -13 103 -3 135
17 l32 20 -2 -26 c-3 -26 8 -34 18 -12 10 23 -7 -48 -18 -77 -10 -26 -13 -27
-27 -14 -14 14 -15 12 -15 -18 1 -35 10 -44 20 -21 3 6 3 2 1 -9 -3 -12 -8
-39 -10 -59 -3 -21 -17 -60 -31 -89 -14 -28 -28 -72 -31 -98 -3 -27 -11 -48
-17 -48 -37 0 -269 35 -376 56 -246 49 -379 88 -772 226 -32 11 -58 24 -58 30
0 6 -6 8 -14 5 -8 -3 -23 3 -35 14 -11 10 -26 18 -32 17 -11 -3 -43 53 -89
155 -12 26 -25 47 -30 47 -4 0 -16 20 -27 45 -10 25 -21 45 -25 45 -5 0 -8 9
-8 20 0 11 -3 20 -7 20 -7 0 -48 87 -47 100 1 3 -11 27 -24 55 -14 27 -26 61
-26 76 -1 15 -4 25 -7 23 -13 -8 -94 289 -85 312 3 8 2 14 -3 14 -7 0 -17 47
-41 200 -9 54 -14 405 -7 445 4 22 23 18 20 -4 -1 -8 7 -5 20 9 16 16 18 24
10 27 -20 7 -15 25 5 19 13 -4 124 6 140 13 2 0 0 -8 -3 -19z m5329 -115 c-4
-8 -8 -15 -10 -15 -2 0 -4 7 -4 15 0 8 4 15 10 15 5 0 7 -7 4 -15z m-10868
-82 c-13 -27 -31 -73 -41 -103 -20 -61 -42 -100 -57 -100 -11 0 -8 2 -253
-180 -310 -230 -305 -224 -314 -360 l-6 -85 -43 85 c-32 65 -44 101 -49 152
l-6 67 64 63 c60 60 169 140 459 337 69 47 151 104 184 128 77 57 90 56 62 -4z
m8391 -50 c32 -59 86 -274 75 -302 -10 -26 -59 -79 -122 -132 -85 -71 -367
-237 -458 -270 -25 -9 -25 -7 8 22 19 18 57 53 85 78 27 25 53 45 57 43 4 -1
8 4 8 10 1 20 48 50 73 47 30 -4 106 31 112 52 3 9 12 20 20 23 8 3 15 12 15
20 0 8 4 16 10 18 5 2 12 19 14 38 2 19 5 42 6 50 1 10 4 9 9 -5 6 -13 8 -1 9
37 0 32 -3 60 -8 63 -7 5 -7 16 3 75 2 9 6 20 9 25 3 6 11 40 18 78 7 39 17
67 24 67 7 0 22 -17 33 -37z m-7177 22 c0 -2 -11 -34 -25 -71 -14 -36 -25 -77
-25 -90 0 -13 -5 -24 -11 -24 -17 0 -120 103 -117 117 5 26 178 92 178 68z
m340 -35 c0 -5 -5 -10 -11 -10 -5 0 -7 5 -4 10 3 6 8 10 11 10 2 0 4 -4 4 -10z
m6643 -325 c-5 -24 -29 -52 -38 -44 -4 4 34 69 40 69 1 0 0 -11 -2 -25z m2177
-75 c-8 -5 -19 -10 -25 -10 -5 0 -3 5 5 10 8 5 20 10 25 10 6 0 3 -5 -5 -10z
m-150 -50 c-34 -11 -60 -11 -35 0 11 5 29 8 40 8 16 0 15 -2 -5 -8z m-10175
-412 c14 -18 56 -73 92 -123 36 -49 80 -105 96 -123 35 -36 31 -43 -27 -62
-55 -18 -73 -4 -136 103 -30 51 -71 116 -92 146 -52 74 -50 88 14 90 18 1 34
-9 53 -31z m8116 -20 c0 -10 2 -10 6 0 2 6 13 12 24 12 13 0 17 -5 12 -17 -6
-17 -5 -17 14 0 28 25 35 10 14 -32 -10 -20 -16 -42 -14 -48 3 -7 0 -13 -6
-13 -6 0 -11 -6 -11 -14 0 -8 -12 -29 -27 -47 -15 -17 -28 -37 -29 -44 -4 -29
-282 -435 -325 -477 -16 -14 -56 -35 -91 -47 -153 -50 -506 -100 -496 -70 2 7
18 17 34 21 16 4 40 17 52 28 12 12 22 16 22 9 0 -26 11 0 15 37 3 21 10 41
16 44 5 4 7 14 4 22 -3 8 0 22 8 29 7 8 12 20 9 27 -2 7 2 19 9 28 6 8 12 29
11 46 0 21 2 28 8 19 6 -11 9 -9 14 7 4 11 6 24 5 28 -2 9 5 31 24 74 6 14 9
31 8 38 -1 6 3 12 9 12 5 0 10 -4 10 -10 0 -5 5 -10 10 -10 6 0 10 9 10 20 0
11 -4 20 -10 20 -5 0 -10 15 -9 33 l1 32 13 -30 c12 -26 14 -28 21 -12 4 12
14 17 25 14 23 -6 26 18 3 27 -8 3 -12 10 -9 16 9 15 25 12 25 -4 0 -8 7 -16
15 -20 11 -4 15 2 15 21 0 21 2 24 15 13 16 -13 20 -3 7 18 -7 9 -15 10 -35 3
-15 -6 -27 -6 -27 -2 0 5 -17 9 -38 8 -40 -1 -62 8 -62 26 0 6 7 2 15 -9 15
-18 15 -18 9 8 -4 20 -1 27 13 31 24 7 134 30 153 32 9 0 20 4 25 7 20 12 127
39 143 36 9 -1 23 1 30 6 7 4 41 12 75 18 88 14 102 16 102 18 0 1 17 3 37 6
21 2 48 9 60 14 32 12 38 12 39 -2z m-1011 -108 c0 -5 -4 -10 -10 -10 -5 0
-10 5 -10 10 0 6 5 10 10 10 6 0 10 -4 10 -10z m-3 -148 c-4 -13 -5 -12 -6 5
0 12 -5 25 -11 28 -5 3 -10 11 -10 18 0 6 7 1 16 -11 8 -12 13 -30 11 -40z
m-473 -817 c68 -18 151 -61 211 -110 23 -19 45 -31 49 -27 4 4 6 0 4 -8 -2 -8
3 -14 10 -12 8 1 11 -1 9 -5 -7 -12 20 -46 31 -39 10 6 42 -56 42 -84 0 -11 5
-20 10 -20 6 0 10 -7 10 -15 0 -8 4 -15 9 -15 4 0 11 -15 14 -32 3 -18 8 -40
12 -49 3 -9 -1 -24 -10 -33 -9 -9 -18 -23 -19 -31 -1 -8 -9 -21 -17 -27 -9 -7
-35 -37 -59 -67 -93 -113 -376 -344 -553 -451 -102 -61 -291 -148 -398 -184
-176 -58 -411 -90 -562 -76 -233 22 -460 98 -679 226 -102 60 -111 71 -61 79
171 27 295 79 413 174 41 33 93 86 115 118 64 92 141 169 277 277 247 197 505
325 801 395 140 34 253 39 341 16z m-4187 -229 c1 0 3 -44 4 -96 l3 -95 -34
-12 c-19 -7 -43 -12 -52 -12 -18 -1 -48 -27 -48 -41 0 -30 228 -243 352 -328
175 -120 393 -175 609 -153 264 26 474 117 747 324 51 38 94 68 96 66 1 -2 22
-44 46 -92 24 -48 58 -105 77 -126 l33 -39 -25 -16 c-52 -34 -354 -187 -430
-217 -202 -81 -393 -119 -592 -119 -184 0 -326 32 -478 108 -95 47 -134 75
-271 193 -131 113 -197 159 -230 159 -13 0 -34 -14 -48 -31 l-27 -31 30 -32
c91 -94 93 -97 86 -130 -4 -17 -9 -56 -11 -86 -3 -30 -7 -61 -9 -67 -2 -7 0
-13 5 -13 5 0 5 -13 0 -30 -5 -17 -8 -73 -7 -125 1 -52 -1 -95 -4 -95 -4 0 -7
-71 -7 -157 -1 -359 -31 -530 -108 -622 -27 -33 -110 -78 -121 -67 -3 3 6 8
20 11 17 5 24 12 20 22 -4 9 2 16 16 20 14 4 20 11 17 20 -3 8 -6 19 -6 24 0
13 -37 11 -45 -2 -9 -14 -55 29 -55 52 0 9 -7 19 -15 23 -12 4 -13 11 -5 31
14 38 13 50 -5 35 -22 -18 -25 -10 -15 35 5 21 6 43 3 48 -4 6 -1 7 7 2 23
-14 3 77 -21 98 -44 36 -129 9 -129 -42 0 -11 -4 -23 -10 -26 -5 -3 -10 -19
-10 -36 0 -16 -5 -29 -11 -29 -6 0 -8 -7 -5 -16 3 -8 2 -12 -4 -9 -6 3 -10 1
-10 -6 0 -7 -8 -21 -17 -32 -10 -11 -12 -17 -5 -13 7 4 12 1 12 -9 0 -9 -4
-13 -10 -10 -5 3 -10 -3 -10 -13 0 -11 -11 -30 -25 -43 -13 -13 -25 -28 -25
-32 0 -12 -53 -62 -62 -59 -4 1 -8 -4 -8 -12 0 -22 -46 -54 -91 -61 -34 -6
-45 -3 -75 20 -52 40 -68 84 -61 175 8 102 63 210 258 505 189 286 217 331
278 453 61 122 112 258 145 387 55 215 109 335 190 419 48 49 92 67 146 59 19
-3 36 -6 37 -7z m6915 -655 c32 -12 108 -91 108 -112 0 -10 -12 -21 -30 -28
-33 -11 -39 -25 -15 -35 8 -3 15 -15 15 -26 0 -11 5 -20 11 -20 12 0 7 -239
-6 -350 -14 -115 -17 -130 -26 -125 -5 4 -9 -6 -9 -20 0 -14 -3 -24 -7 -22
-12 7 -9 -230 2 -242 6 -5 39 -11 74 -12 53 -2 65 1 74 17 6 10 12 21 13 24 0
3 6 18 12 33 7 16 12 37 12 48 0 11 4 18 9 15 5 -3 11 5 13 19 3 14 1 25 -3
25 -5 0 -9 5 -9 11 0 5 4 7 10 4 5 -3 7 0 4 8 -3 8 2 17 11 21 9 3 13 11 10
16 -4 6 -2 16 3 23 6 8 4 55 -5 131 -12 106 -12 125 2 166 17 51 73 113 118
129 91 34 204 -16 254 -113 20 -39 13 -201 -11 -271 -21 -60 -91 -202 -131
-265 -76 -122 -255 -353 -376 -485 -120 -132 -237 -271 -288 -342 -32 -45 -62
-79 -66 -75 -5 4 -6 2 -2 -3 3 -6 -3 -28 -13 -50 -11 -22 -19 -46 -20 -53 0
-7 -4 -10 -10 -7 -6 3 -11 -5 -11 -19 -1 -14 -2 -29 -3 -33 -1 -5 -6 -24 -10
-43 -4 -19 -14 -64 -21 -100 -8 -36 -22 -110 -31 -165 -39 -239 -78 -305 -168
-285 -90 20 -131 80 -130 190 2 94 21 167 85 323 94 226 172 445 165 463 -6
14 -16 16 -85 10 l-79 -7 -83 57 c-150 102 -365 275 -654 528 -173 151 -775
749 -775 770 0 7 17 18 38 24 52 16 147 87 218 165 34 37 65 67 69 67 11 0 24
-17 142 -193 224 -337 449 -613 713 -878 299 -299 480 -447 518 -423 54 35
107 426 132 979 6 127 15 264 21 305 13 93 49 162 108 206 45 35 72 41 113 25z
m-7272 -1251 c0 -5 -5 -10 -11 -10 -5 0 -7 5 -4 10 3 6 8 10 11 10 2 0 4 -4 4
-10z m-85 -78 c-3 -3 -11 0 -18 7 -9 10 -8 11 6 5 10 -3 15 -9 12 -12z"/>
<path d="M6155 11210 c-3 -5 -1 -10 4 -10 6 0 11 5 11 10 0 6 -2 10 -4 10 -3
0 -8 -4 -11 -10z"/>
<path d="M5780 10416 c0 -16 16 -30 45 -39 18 -7 19 -6 3 6 -10 8 -16 16 -13
18 2 3 -5 10 -15 17 -16 10 -20 10 -20 -2z"/>
<path d="M5810 10170 c0 -5 5 -10 11 -10 5 0 7 5 4 10 -3 6 -8 10 -11 10 -2 0
-4 -4 -4 -10z"/>
<path d="M5842 10141 c2 -7 7 -12 11 -12 12 1 9 15 -3 20 -7 2 -11 -2 -8 -8z"/>
<path d="M5840 10103 c0 -5 5 -15 10 -23 8 -12 10 -11 10 8 0 12 -4 22 -10 22
-5 0 -10 -3 -10 -7z"/>
<path d="M5881 9534 c0 -11 3 -14 6 -6 3 7 2 16 -1 19 -3 4 -6 -2 -5 -13z"/>
<path d="M5851 9334 c0 -11 3 -14 6 -6 3 7 2 16 -1 19 -3 4 -6 -2 -5 -13z"/>
<path d="M5886 9315 c-3 -8 -1 -15 4 -15 6 0 10 7 10 15 0 8 -2 15 -4 15 -2 0
-6 -7 -10 -15z"/>
<path d="M8773 9188 c-34 -39 -51 -85 -58 -160 -9 -102 7 -224 39 -293 31 -68
49 -84 93 -85 40 0 77 45 92 113 25 109 11 307 -26 382 -33 65 -101 86 -140
43z"/>
<path d="M9622 9147 c-44 -25 -56 -56 -60 -158 -5 -116 12 -257 33 -279 21
-20 112 -21 125 0 46 71 52 266 11 372 -18 45 -28 58 -53 67 -17 6 -31 11 -32
11 -1 -1 -11 -6 -24 -13z"/>
<path d="M9811 7719 c-46 -4 -91 -11 -100 -14 -9 -3 -34 -8 -56 -11 -72 -8
-165 -28 -165 -34 0 -3 40 -6 90 -5 49 0 85 2 78 4 -36 12 81 27 239 30 154 2
186 0 205 -13 12 -9 33 -16 45 -16 13 0 23 -5 23 -11 0 -6 9 -8 20 -4 14 5 20
2 20 -9 0 -9 7 -16 15 -16 9 0 12 -6 8 -17 -4 -11 -3 -14 5 -9 15 9 46 -20 37
-34 -3 -5 0 -8 7 -5 7 3 24 -13 37 -35 24 -38 40 -39 41 -2 0 21 -102 123
-117 117 -8 -2 -12 -1 -9 3 9 14 -75 61 -128 71 -80 15 -203 20 -295 10z m324
-39 c13 -6 15 -9 5 -9 -8 0 -22 4 -30 9 -18 12 -2 12 25 0z"/>
<path d="M9450 7650 c0 -5 4 -10 9 -10 6 0 13 5 16 10 3 6 -1 10 -9 10 -9 0
-16 -4 -16 -10z"/>
<path d="M8990 7259 c0 -5 5 -7 10 -4 6 3 10 8 10 11 0 2 -4 4 -10 4 -5 0 -10
-5 -10 -11z"/>
<path d="M4671 7734 c0 -11 3 -14 6 -6 3 7 2 16 -1 19 -3 4 -6 -2 -5 -13z"/>
<path d="M4598 7723 c7 -3 16 -2 19 1 4 3 -2 6 -13 5 -11 0 -14 -3 -6 -6z"/>
<path d="M4370 7660 c-12 -7 -10 -9 7 -7 12 0 19 5 17 9 -6 10 -6 10 -24 -2z"/>
<path d="M2516 5995 c-9 -26 -7 -32 5 -12 6 10 9 21 6 23 -2 3 -7 -2 -11 -11z"/>
<path d="M7403 5945 c-7 -8 -9 -16 -4 -19 5 -3 12 1 15 10 8 22 4 25 -11 9z"/>
<path d="M9986 6977 c3 -10 9 -15 12 -12 3 3 0 11 -7 18 -10 9 -11 8 -5 -6z"/>
<path d="M9715 6840 c3 -5 8 -10 11 -10 2 0 4 5 4 10 0 6 -5 10 -11 10 -5 0
-7 -4 -4 -10z"/>
<path d="M9735 6680 c-3 -5 -1 -10 4 -10 6 0 11 5 11 10 0 6 -2 10 -4 10 -3 0
-8 -4 -11 -10z"/>
<path d="M9670 6575 c-15 -18 -8 -28 21 -32 13 -2 18 1 13 9 -5 8 -2 9 11 4
18 -7 18 -6 0 14 -22 24 -29 25 -45 5z m30 1 c0 -2 -7 -9 -15 -16 -13 -11 -14
-10 -9 4 5 14 24 23 24 12z"/>
<path d="M10560 6711 c0 -5 5 -13 10 -16 6 -3 10 -2 10 4 0 5 -4 13 -10 16 -5
3 -10 2 -10 -4z"/>
<path d="M10465 6111 c-3 -5 -2 -12 3 -15 5 -3 9 1 9 9 0 17 -3 19 -12 6z"/>
<path d="M6566 6274 c-3 -9 -4 -19 -1 -22 3 -3 5 1 5 9 0 11 2 11 10 -1 5 -8
10 -10 10 -5 0 6 -4 16 -9 23 -6 11 -10 10 -15 -4z"/>
<path d="M6875 5900 c3 -5 8 -10 11 -10 2 0 4 5 4 10 0 6 -5 10 -11 10 -5 0
-7 -4 -4 -10z"/>
<path d="M8006 4982 c-3 -5 1 -9 9 -9 8 0 12 4 9 9 -3 4 -7 8 -9 8 -2 0 -6 -4
-9 -8z"/>
<path d="M8110 4700 c0 -5 4 -10 9 -10 6 0 13 5 16 10 3 6 -1 10 -9 10 -9 0
-16 -4 -16 -10z"/>
<path d="M8105 4664 c9 -9 18 -14 21 -11 9 9 -6 27 -22 27 -13 0 -13 -2 1 -16z"/>
<path d="M8084 4479 c-1 -15 3 -26 7 -23 11 6 12 41 2 47 -5 3 -8 -8 -9 -24z"/>
<path d="M9126 5115 c4 -8 10 -15 15 -15 5 0 9 7 9 15 0 8 -7 15 -15 15 -9 0
-12 -6 -9 -15z"/>
<path d="M9099 5098 c-1 -7 -2 -28 -3 -46 -1 -18 -8 -37 -16 -43 -12 -9 -12
-10 3 -5 10 3 27 6 38 6 10 0 19 5 19 11 0 5 -4 8 -9 4 -5 -3 -12 -1 -15 4 -4
5 -2 12 4 16 15 9 12 28 -3 22 -10 -4 -13 2 -9 19 2 13 2 24 -2 24 -3 0 -7 -6
-7 -12z"/>
<path d="M2656 2145 c-9 -26 -7 -32 5 -12 6 10 9 21 6 23 -2 3 -7 -2 -11 -11z"/>
<path d="M3276 2083 c-6 -14 -5 -15 5 -6 7 7 10 15 7 18 -3 3 -9 -2 -12 -12z"/>
<path d="M2620 2069 c-6 -11 -10 -25 -7 -32 2 -6 9 3 15 21 12 36 8 42 -8 11z"/>
<path d="M3168 1933 c7 -3 16 -2 19 1 4 3 -2 6 -13 5 -11 0 -14 -3 -6 -6z"/>
</g>
</svg>
